<?xml version="1.0" encoding="UTF-8" standalone="no"?>
<!-- Created with Inkscape (http://www.inkscape.org/) -->

<svg
   version="1.1"
   id="svg2"
   width="512"
   height="512"
   viewBox="0 0 512 512"
   sodipodi:docname="FreeJ2ME.svg"
   inkscape:version="1.2.2 (b0a8486541, 2022-12-01)"
   inkscape:export-filename="FreeJ2ME.png"
   inkscape:export-xdpi="192"
   inkscape:export-ydpi="192"
   xmlns:inkscape="http://www.inkscape.org/namespaces/inkscape"
   xmlns:sodipodi="http://sodipodi.sourceforge.net/DTD/sodipodi-0.dtd"
   xmlns="http://www.w3.org/2000/svg"
   xmlns:svg="http://www.w3.org/2000/svg">
  <defs
     id="defs6" />
  <sodipodi:namedview
     id="namedview4"
     pagecolor="#ffffff"
     bordercolor="#000000"
     borderopacity="0.25"
     inkscape:showpageshadow="2"
     inkscape:pageopacity="0.0"
     inkscape:pagecheckerboard="0"
     inkscape:deskcolor="#d1d1d1"
     showgrid="false"
     inkscape:zoom="2.1268445"
     inkscape:cx="226.86191"
     inkscape:cy="222.86538"
     inkscape:window-width="1920"
     inkscape:window-height="1019"
     inkscape:window-x="0"
     inkscape:window-y="0"
     inkscape:window-maximized="1"
     inkscape:current-layer="g8" />
  <g
     inkscape:groupmode="layer"
     inkscape:label="Image"
     id="g8">
    <g
       id="g2782">
      <path
         style="fill:#0064ca"
         d="m 252.17566,471.63656 -13.32433,6.35135 -5.83383,-12.24395 C 229.80889,459.00978 189.33942,375.42597 143.08534,280.00216 96.831259,184.57835 59.327435,106.39055 59.743506,106.25148 60.159578,106.11241 96.229625,88.67394 139.89917,67.499316 183.56871,46.324692 219.62058,29 220.01443,29 c 0.39386,0 41.08349,83.30824 90.42142,185.12942 49.33792,101.82118 89.33605,185.48277 88.88473,185.91465 -0.45132,0.43188 -30.74558,15.28782 -67.32058,33.01319 -36.575,17.72538 -72.49595,35.08606 -79.82434,38.5793 z m 0.0965,-33.65862 c 0.42471,0.0121 4.36245,-1.78308 8.75053,-3.98937 l 7.97834,-4.01143 -7.56032,-15.09545 c -4.15818,-8.3025 -7.38461,-15.27116 -7.16986,-15.48592 0.21476,-0.21476 3.05417,0.0703 6.30979,0.63348 3.25563,0.56317 6.89193,1.23554 8.08069,1.49415 1.82789,0.39766 2.80987,-0.71141 6.36458,-7.18827 l 4.20322,-7.65848 7.63542,15.69265 7.63541,15.69265 14.5,-7.14464 c 7.975,-3.92955 23.1509,-11.33183 33.72422,-16.44952 l 19.22422,-9.30488 -3.06996,-6.83145 c -1.68848,-3.7573 -3.42334,-7.20542 -3.85524,-7.66248 -0.43191,-0.45706 -2.75132,0.16075 -5.15426,1.37292 -2.40294,1.21217 -4.49833,2.31547 -4.65642,2.45179 -0.15809,0.13632 0.22372,1.36973 0.84846,2.7409 0.9554,2.09687 0.77329,3.04623 -1.14603,5.97418 -1.5635,2.38513 -4.16802,4.31473 -8.27251,6.12881 -3.29481,1.45621 -6.0845,2.53848 -6.1993,2.40504 -0.1148,-0.13344 -1.85152,-3.52375 -3.85938,-7.53403 -2.00786,-4.01027 -3.38405,-7.72277 -3.05821,-8.25 0.32585,-0.52722 1.30378,-0.95859 2.17318,-0.95859 0.86941,0 2.15377,0.78366 2.85413,1.74146 1.19999,1.64108 1.53868,1.61258 5.8756,-0.49446 l 4.60222,-2.23593 -3.63259,-7.25554 c -1.99792,-3.99054 -3.76122,-7.39942 -3.91845,-7.57529 -0.15723,-0.17587 -2.24198,0.66694 -4.63277,1.87292 -2.3908,1.20597 -4.49587,2.32382 -4.67793,2.48411 -0.18206,0.16029 0.1551,1.19976 0.74925,2.30993 0.90064,1.68288 0.73531,2.12799 -0.99434,2.67696 -1.14104,0.36215 -2.21156,0.50486 -2.37895,0.31715 -0.16739,-0.18772 -1.4515,-2.62575 -2.85358,-5.41784 l -2.54925,-5.07653 5.4511,-2.67347 C 322.67495,354.16204 326.74226,353 328.95073,353 c 2.14852,0 4.57338,0.66696 5.38856,1.48214 0.81517,0.81518 1.67219,2.05229 1.90447,2.74914 0.31275,0.93826 1.7434,0.64823 5.51397,-1.11781 l 5.09164,-2.38479 -3.64397,-7.36434 c -2.00418,-4.05039 -4.10779,-7.34143 -4.67469,-7.31343 -0.56689,0.028 -15.63182,7.13775 -33.47763,15.79945 l -32.44692,15.74855 -4.39481,7.45054 c -2.41715,4.0978 -4.54734,7.60686 -4.73377,7.79791 -0.18644,0.19105 -4.32807,-0.19777 -9.20363,-0.86405 l -8.86467,-1.21141 -8.1427,4.09406 -8.14269,4.09407 11.18805,22.99792 c 6.15344,12.64886 11.53555,23.00785 11.96026,23.01999 z M 308.79577,403 c -0.45209,0 -4.43409,-7.53037 -8.8489,-16.73415 -7.37998,-15.38544 -7.8874,-16.83617 -6.29577,-18 0.95214,-0.69622 2.20765,-1.26032 2.79003,-1.25355 0.58238,0.007 4.63895,7.4826 9.0146,16.61298 7.60843,15.87598 7.87293,16.66123 6.05887,17.9877 C 310.47133,402.37584 309.24785,403 308.79577,403 Z M 221,358.85744 c 0.825,0.0976 8.30883,-3.09285 16.63074,-7.08996 14.21812,-6.82914 15.28242,-7.5389 17.64549,-11.76748 l 2.51474,-4.5 -8.39548,-17.40417 C 244.77797,308.52354 241,300.54208 241,300.35925 c 0,-0.18282 1.59427,-0.99854 3.54282,-1.81269 l 3.54281,-1.48029 -1.56849,-3.03313 C 245.65446,292.36491 244.78432,291 244.58348,291 c -0.20084,0 -7.03775,3.17347 -15.19314,7.05215 -8.15539,3.87869 -14.98769,7.21187 -15.1829,7.40707 -0.1952,0.19521 0.3671,1.75114 1.24956,3.45763 1.56941,3.03489 1.6683,3.06971 4.52408,1.59293 1.60578,-0.83038 3.19878,-1.50978 3.54001,-1.50978 0.34123,0 4.22755,7.46102 8.63628,16.58004 4.40874,9.11903 7.8644,16.71489 7.67925,16.8797 -0.18514,0.16481 -2.69091,1.48222 -5.56839,2.92757 l -5.23176,2.6279 -3.13675,-6.2576 c -1.72522,-3.44169 -3.31858,-6.45526 -3.5408,-6.69683 -0.22222,-0.24158 -3.99388,1.31102 -8.38148,3.45022 -4.38759,2.13919 -7.97744,4.26058 -7.97744,4.71419 0,0.4536 1.56596,3.93432 3.47991,7.73492 3.09987,6.15552 3.83703,6.95439 6.75,7.315 1.79855,0.22265 3.94509,0.4847 4.77009,0.58233 z M 273.44164,334 c 0.60486,0 12.34044,-5.45623 26.07906,-12.12495 13.73861,-6.66872 25.16811,-12.29503 25.39888,-12.50291 0.23076,-0.20787 -0.63366,-2.62665 -1.92094,-5.37505 C 321.71136,301.24869 320.19253,299 319.62348,299 c -0.56906,0 -4.52444,1.63766 -8.78973,3.63924 -6.71008,3.14884 -7.62563,3.88111 -6.79442,5.43425 0.52837,0.98727 0.96067,2.04509 0.96067,2.35073 0,0.30564 -3.99707,2.56316 -8.88237,5.0167 -4.88531,2.45355 -9.16031,4.18307 -9.5,3.84337 -0.3397,-0.33969 -0.60085,-1.33012 -0.58034,-2.20096 0.0205,-0.87083 5.36988,-10.11634 11.88749,-20.54557 l 11.8502,-18.96223 -2.20365,-5.03777 -2.20364,-5.03776 -5.93384,-0.28475 c -5.65652,-0.27144 -6.75174,0.11356 -23.43385,8.23766 -14.46633,7.04502 -17.96962,9.17462 -20.20905,12.28475 -1.48998,2.06929 -2.72748,4.46383 -2.75,5.32121 -0.0225,0.85738 0.59523,2.4289 1.37279,3.49228 1.37369,1.87862 1.64119,1.82251 9.44074,-1.9802 7.37779,-3.59709 7.9879,-4.12216 7.54363,-6.49228 -0.44987,-2.40002 0.14778,-2.87041 8.62659,-6.78966 l 9.10995,-4.21099 1.49487,3.57772 c 0.82218,1.96775 1.29205,4.10626 1.04416,4.75225 -0.24789,0.64598 -5.70851,9.68799 -12.13473,20.09335 l -11.68403,18.91883 2.24348,4.78992 C 271.33231,331.84454 272.83677,334 273.44164,334 Z M 169.95531,288 c 0.51864,0 28.26123,-13.27036 61.65019,-29.48969 33.38896,-16.21932 60.85172,-29.6342 61.02836,-29.81083 0.17663,-0.17664 -18.0794,-38.31878 -40.56896,-84.76032 -22.48957,-46.441537 -41.29813,-84.353763 -41.79682,-84.249389 -0.49869,0.104374 -27.8701,13.28396 -60.82536,29.28797 -32.95526,16.004009 -60.311705,29.491239 -60.792093,29.971629 -0.497912,0.49791 14.077733,31.75957 33.901753,72.71203 19.12636,39.51123 37.40426,77.3511 40.61756,84.0886 3.2133,6.7375 6.26672,12.25 6.78537,12.25 z m 1.94092,-13.36302 c -0.33208,0.16517 -1.11958,-0.83176 -1.75,-2.21539 C 169.5158,271.03796 169,269.53166 169,269.07427 c 0,-0.4574 1.35,-1.39082 3,-2.07427 1.65,-0.68345 3,-1.4204 3,-1.63766 0,-0.21726 -1.97242,-4.55016 -4.38317,-9.62868 -2.41074,-5.07851 -6.68511,-14.04846 -9.49861,-19.93321 l -5.11544,-10.69956 -3.60948,1.50814 c -1.98521,0.82947 -3.72488,1.36927 -3.86593,1.19955 -0.14105,-0.16972 -0.76742,-1.2915 -1.39192,-2.49284 C 146.51095,224.1144 146,222.85172 146,222.5098 c 0,-0.34193 11.07688,-5.99651 24.61529,-12.56574 C 184.15371,203.37483 195.39868,198 195.60413,198 c 0.20545,0 2.20701,3.64657 4.4479,8.10348 2.24089,4.45691 3.93341,8.2266 3.76116,8.37708 -0.17226,0.15048 -2.17749,1.21347 -4.45608,2.3622 l -4.1429,2.08861 -1.22842,-2.96569 c -0.67564,-1.63112 -1.51134,-2.97642 -1.85711,-2.98954 -0.34577,-0.0131 -2.30673,-0.4136 -4.35767,-0.88995 -3.13,-0.72697 -4.69615,-0.4087 -9.75,1.9814 -3.31156,1.56611 -6.02101,3.32942 -6.02101,3.91846 0,0.58904 1.35648,3.75815 3.0144,7.04247 1.65791,3.28431 3.57041,5.96459 4.25,5.95617 0.67958,-0.008 1.88501,-0.4262 2.67874,-0.92839 1.17746,-0.74497 1.22321,-1.39579 0.24848,-3.53508 -1.12213,-2.46281 -0.99172,-2.7068 2.14803,-4.01867 1.83848,-0.76816 3.87643,-1.53299 4.52879,-1.69961 0.65235,-0.16662 2.91715,3.34742 5.03289,7.80898 l 3.84681,8.11191 -4.2475,2.06359 -4.24749,2.0636 -1.14982,-2.52358 c -0.76437,-1.67762 -1.67228,-2.32309 -2.70836,-1.92551 C 184.53777,236.73087 183.42323,237 182.91821,237 182.4132,237 182,237.48539 182,238.07865 c 0,0.59326 1.86527,5.09326 4.14503,10 2.27977,4.90674 4.7448,8.92135 5.47785,8.92135 0.73305,0 3.78431,-1.20233 6.78058,-2.67183 4.2107,-2.06512 5.84074,-3.5433 7.17832,-6.50954 1.42816,-3.16709 1.52017,-4.29946 0.52652,-6.48029 -0.66223,-1.45342 -0.84501,-2.98239 -0.40617,-3.3977 0.43883,-0.41531 2.41173,-1.41813 4.38423,-2.22848 l 3.58636,-1.47336 4.07607,8.21873 4.07607,8.21873 -24.66243,11.83021 c -13.56434,6.50661 -24.93413,11.96534 -25.2662,12.13051 z M 228.11433,247 c -0.43631,0 -1.33238,-1.18315 -1.99126,-2.62923 -0.65887,-1.44607 -1.0686,-2.73884 -0.91051,-2.87282 0.15809,-0.13398 1.72379,-0.97386 3.47933,-1.8664 l 3.19189,-1.62281 -9.50481,-19.73396 c -5.22765,-10.85368 -9.70716,-19.9363 -9.95445,-20.1836 -0.2473,-0.24729 -1.95391,0.26771 -3.79247,1.14446 l -3.34283,1.59408 -1.53369,-3.2162 -1.5337,-3.21619 24.39221,-11.69867 C 240.02976,176.2644 251.35617,171 251.78384,171 c 0.42767,0 2.45127,3.38244 4.49687,7.51654 2.04561,4.1341 3.71929,7.89084 3.71929,8.34831 0,0.45748 -1.80595,1.54117 -4.01323,2.40821 l -4.01323,1.57644 -1.45096,-2.80583 c -1.14516,-2.21451 -2.38314,-2.94563 -5.87412,-3.46914 -3.63816,-0.54557 -5.46366,-0.16981 -10.28582,2.11723 -3.22445,1.52929 -6.00402,2.85315 -6.17682,2.9419 -0.1728,0.0888 1.28831,3.3435 3.24692,7.23277 3.24406,6.44185 3.76168,6.99507 5.81418,6.21402 1.23919,-0.47156 2.19057,-1.47007 2.11417,-2.21891 -0.0764,-0.74885 -0.43259,-2.07227 -0.79153,-2.94094 -0.48012,-1.16196 0.41828,-2.0623 3.39911,-3.40647 2.22845,-1.00489 4.21938,-1.64416 4.4243,-1.4206 0.20492,0.22356 2.00033,3.65774 3.9898,7.63151 1.98948,3.97377 3.61723,7.64224 3.61723,8.15217 0,0.50993 -1.2375,1.37513 -2.75,1.92268 -1.5125,0.54755 -3.45735,1.28396 -4.32188,1.63647 -1.07429,0.43803 -1.94345,-0.17459 -2.74565,-1.93523 -1.03881,-2.27993 -1.43299,-2.44128 -3.42812,-1.40319 -1.23989,0.64513 -2.39493,1.2901 -2.56675,1.43325 -0.17182,0.14315 1.79264,4.4697 4.36547,9.61454 2.57283,5.14485 4.78272,9.47358 4.91087,9.6194 0.12815,0.14583 2.95475,-0.97917 6.28133,-2.5 5.01767,-2.29394 6.40842,-3.49739 8.16146,-7.06232 1.58469,-3.22257 1.86057,-4.76909 1.1032,-6.18426 C 262.45447,212.98066 262,211.72024 262,211.21762 c 0,-0.50263 1.80459,-1.72763 4.0102,-2.72222 2.2056,-0.99459 4.17561,-1.62543 4.37779,-1.40187 0.20218,0.22356 2.01726,3.99991 4.03351,8.3919 2.01625,4.39199 3.29521,8.109 2.84213,8.26003 -0.45308,0.15102 -11.51853,5.44508 -24.58989,11.76457 C 239.60238,241.82951 228.55065,247 228.11433,247 Z m -99.10525,-60 c -0.37843,0 -1.22713,-1.18315 -1.88601,-2.62923 -0.65887,-1.44607 -1.0686,-2.73884 -0.91051,-2.87282 0.15809,-0.13398 1.72379,-0.97386 3.47933,-1.8664 l 3.19189,-1.62281 -9.50481,-19.73396 c -5.22765,-10.85368 -9.70716,-19.9363 -9.95445,-20.1836 -0.2473,-0.24729 -1.95391,0.26771 -3.79247,1.14446 l -3.34283,1.59408 -1.53369,-3.2162 -1.5337,-3.21619 24.39221,-11.69867 C 141.02976,116.2644 152.35617,111 152.78384,111 c 0.42767,0 2.45127,3.38244 4.49687,7.51654 2.04561,4.1341 3.71929,7.89084 3.71929,8.34831 0,0.45748 -1.80595,1.54117 -4.01323,2.40821 l -4.01323,1.57644 -1.45096,-2.80583 c -1.14516,-2.21451 -2.38314,-2.94563 -5.87412,-3.46914 -3.63816,-0.54557 -5.46366,-0.16981 -10.28582,2.11723 -3.22445,1.52929 -6.00402,2.85315 -6.17682,2.9419 -0.1728,0.0888 1.28831,3.3435 3.24692,7.23277 3.24406,6.44185 3.76168,6.99507 5.81418,6.21402 1.23919,-0.47156 2.19057,-1.47007 2.11417,-2.21891 -0.0764,-0.74885 -0.43259,-2.07227 -0.79153,-2.94094 -0.48012,-1.16196 0.41828,-2.0623 3.39911,-3.40647 2.22845,-1.00489 4.21938,-1.64416 4.4243,-1.4206 0.20492,0.22356 2.00033,3.65774 3.9898,7.63151 1.98948,3.97377 3.61723,7.64224 3.61723,8.15217 0,0.50993 -1.2375,1.37513 -2.75,1.92268 -1.5125,0.54755 -3.45735,1.28396 -4.32188,1.63647 -1.07429,0.43803 -1.94345,-0.17459 -2.74565,-1.93523 -1.03881,-2.27993 -1.43299,-2.44128 -3.42812,-1.40319 -1.23989,0.64513 -2.39493,1.2901 -2.56675,1.43325 -0.17182,0.14315 1.79264,4.4697 4.36547,9.61454 2.57283,5.14485 4.80909,9.49995 4.96947,9.67801 0.16038,0.17805 1.66107,-0.38445 3.33487,-1.25 1.6738,-0.86556 3.23602,-1.57374 3.47161,-1.57374 0.23559,0 0.9935,1.36443 1.68426,3.03206 0.69076,1.66764 1.08285,3.19014 0.87132,3.38333 -0.21153,0.19319 -6.64024,3.32876 -14.28603,6.96793 C 135.95278,184.0225 129.38751,187 129.00908,187 Z m 61.63219,-29.60489 -5.41582,2.39513 -1.11272,-2.44218 C 183.50073,156.00487 183,154.53166 183,154.07427 c 0,-0.4574 1.35,-1.39082 3,-2.07427 1.65,-0.68345 3,-1.4204 3,-1.63766 0,-0.21726 -1.97242,-4.55016 -4.38317,-9.62868 -2.41074,-5.07851 -6.68511,-14.04846 -9.49861,-19.93321 l -5.11544,-10.69956 -3.60948,1.50814 c -1.98521,0.82947 -3.72488,1.36927 -3.86593,1.19955 -0.14105,-0.16972 -0.76742,-1.2915 -1.39192,-2.49284 C 160.51095,109.1144 160,107.85285 160,107.51231 c 0,-0.34055 9.5625,-5.28942 21.25,-10.997481 l 21.25,-10.378303 5.13453,1.105563 5.13452,1.105563 3.84873,7.893925 3.84873,7.893923 -2.23325,3.88037 c -1.2283,2.1342 -2.23326,4.07762 -2.23326,4.3187 0,0.24109 2.03589,0.74364 4.5242,1.11679 l 4.52419,0.67844 5.39439,10.7561 5.39438,10.7561 -7.43512,3.679 c -4.08932,2.02345 -7.68203,3.679 -7.9838,3.679 -0.30178,0 -2.74608,-4.69392 -5.43179,-10.43093 -4.86955,-10.402 -4.89504,-10.43334 -9.18478,-11.29932 -2.68465,-0.54196 -5.33541,-0.48551 -7.05167,0.15017 -1.5125,0.5602 -2.74789,1.4824 -2.74532,2.04932 0.003,0.56692 2.68148,6.54744 5.9531,13.29004 l 5.94842,12.25928 -5.92456,2.99071 c -3.25851,1.64489 -8.36168,4.06851 -11.34037,5.38584 z m 2.12313,-41.38908 c 0.40458,0.003 3.09042,-1.00918 5.96853,-2.25 2.87812,-1.24082 5.24062,-2.55158 5.25,-2.91281 0.009,-0.36123 -1.31411,-3.62373 -2.94111,-7.25 C 199.41483,99.966948 197.59987,97 197.00858,97 c -0.59129,0 -3.31011,1.132581 -6.04182,2.516846 C 188.23504,100.90111 186,102.48894 186,103.04536 c 0,0.55642 1.35648,3.69884 3.0144,6.98316 1.65791,3.28431 3.34541,5.97419 3.75,5.97751 z"
         id="path2788" />
      <path
         style="fill:#00ca31"
         d="m 141,462.84195 c -3.575,-0.0774 -11.675,-0.47911 -18,-0.89278 -6.325,-0.41366 -15.775,-1.49857 -21,-2.41091 -5.225,-0.91234 -13.775,-2.7462 -19,-4.07525 -5.225,-1.32905 -11.899701,-3.33923 -14.832669,-4.46707 -2.932968,-1.12783 -8.107968,-3.44137 -11.5,-5.14118 -3.392032,-1.69982 -8.924845,-5.04601 -12.29514,-7.436 -3.370295,-2.38998 -8.855421,-7.32213 -12.18917,-10.96033 -3.56917,-3.89512 -7.934389,-10.24143 -10.616828,-15.43513 -2.659319,-5.14893 -5.436584,-12.50455 -6.672336,-17.67176 -1.762171,-7.3684 -2.031831,-10.86223 -1.609362,-20.85154 0.375472,-8.87805 1.194625,-14.34146 3.148624,-21 1.452614,-4.95 5.056531,-13.95 8.008704,-20 2.952173,-6.05 8.343223,-15.44053 11.980111,-20.86784 3.636889,-5.42731 10.533909,-14.65231 15.326712,-20.5 4.792802,-5.84769 13.672548,-15.61512 19.73277,-21.7054 6.060221,-6.09028 15.096568,-14.44322 20.080771,-18.56209 4.984203,-4.11887 12.786323,-10.32379 17.338043,-13.78872 4.55172,-3.46493 8.63194,-5.91199 9.06716,-5.43791 0.43521,0.47408 9.43958,18.73018 20.0097,40.56911 l 19.2184,39.70715 -4.544,7.29285 c -2.4992,4.01107 -6.56333,11.56785 -9.03139,16.79285 -2.46806,5.225 -5.60796,12.875 -6.97756,17 -1.3696,4.125 -3.23843,11.1 -4.15295,15.5 -0.99102,4.76807 -1.67938,12.84789 -1.7039,20 -0.0261,7.62316 0.59253,15.10026 1.6962,20.5 0.95553,4.675 3.01831,12.01968 4.58396,16.32151 1.56565,4.30184 4.86269,11.6113 7.32675,16.24325 2.46406,4.63195 6.51365,11.06447 8.99909,14.29448 l 4.51898,5.87276 -5.20533,0.62531 C 149.8424,462.70123 144.575,462.91932 141,462.84195 Z M 441.39195,338 c -0.2501,0 -0.60862,-0.5625 -0.79673,-1.25 -0.18811,-0.6875 -0.85516,-4.007 -1.48234,-7.37666 -0.62719,-3.36967 -2.07394,-8.99467 -3.21502,-12.5 -1.14107,-3.50534 -3.80095,-10.0757 -5.91083,-14.6008 -2.10989,-4.5251 -6.10345,-11.5001 -8.87457,-15.5 -2.77113,-3.9999 -8.76757,-10.94158 -13.32544,-15.42596 C 403.22916,266.86219 396.35,261.09371 392.5,258.52772 c -3.85,-2.56599 -10.61386,-6.40017 -15.03081,-8.5204 -4.41694,-2.12023 -12.76,-5.40437 -18.54012,-7.29808 -5.78013,-1.89371 -14.76626,-4.20199 -19.96919,-5.12952 -5.20294,-0.92753 -11.22208,-1.99991 -13.37588,-2.38307 L 321.668,234.5 302.834,195.61323 C 292.4753,174.2255 284,156.40919 284,156.02142 c 0,-0.38776 4.3875,-1.68085 9.75,-2.87352 5.3625,-1.19267 15.15,-3.06737 21.75,-4.166 6.6,-1.09862 17.625,-2.49536 24.5,-3.10387 7.32534,-0.64836 22.43536,-0.89012 36.5,-0.58401 18.03536,0.39254 26.98232,1.04557 36,2.62761 6.6,1.15788 16.05,3.2572 21,4.66514 4.95,1.40794 13.20818,4.54499 18.35152,6.97122 5.14333,2.42624 12.11833,6.39047 15.5,8.80941 3.38166,2.41894 8.68807,7.0672 11.792,10.32947 3.10394,3.26227 7.32126,8.55412 9.37183,11.75967 2.05057,3.20555 4.99982,9.31231 6.55389,13.57057 1.55407,4.25826 3.34559,11.64987 3.98115,16.42579 0.86921,6.53171 0.87308,11.07862 0.0156,18.34908 -0.65035,5.51438 -2.60242,14.03618 -4.54515,19.84195 -1.87287,5.59698 -5.05747,13.45728 -7.07689,17.46731 -2.01942,4.01003 -5.82272,10.75917 -8.45177,14.99807 -2.62905,4.23891 -8.14081,12.13591 -12.24835,17.5489 -4.10754,5.41298 -11.38977,14.22929 -16.18273,19.59179 -4.79296,5.3625 -8.91909,9.75 -9.16918,9.75 z"
         id="path2786" />
      <path
         style="fill:#142c2c"
         d="m 238.98467,479 c -0.38504,0 -18.6516,-37.10759 -40.59237,-82.46131 -21.94076,-45.35372 -40.2916,-82.34562 -40.77964,-82.20422 -0.48804,0.1414 -3.06841,3.83649 -5.73415,8.21131 -2.66575,4.37482 -6.86425,12.70433 -9.33,18.51003 -2.46576,5.80569 -5.65761,14.80569 -7.093,20 -2.00723,7.2636 -2.73482,12.67667 -3.15122,23.44419 -0.41313,10.68297 -0.14918,16.07904 1.11406,22.77488 0.9105,4.82619 3.03008,12.70119 4.71018,17.5 1.68009,4.79882 4.90912,12.22944 7.17561,16.51251 2.2665,4.28306 6.4383,10.86786 9.27067,14.63288 l 5.14977,6.8455 -7.80407,0.68076 c -4.29225,0.37442 -13.34278,0.39469 -20.11229,0.0451 C 125.0387,463.14194 115.9,462.42237 111.5,461.89253 107.1,461.36269 98.775,459.9946 93,458.85232 c -5.775,-1.14228 -14.394495,-3.34903 -19.154434,-4.9039 -4.759938,-1.55486 -11.959938,-4.49041 -16,-6.52344 C 53.805505,445.39195 48.025,442.03829 45,439.9724 41.975,437.9065 37.677065,434.48008 35.449032,432.35811 33.221,430.23615 29.780104,426.475 27.802595,424 c -1.977508,-2.475 -5.178995,-7.425 -7.114416,-11 -1.935421,-3.575 -4.500244,-9.65 -5.699607,-13.5 -1.426326,-4.57856 -2.36607,-10.83324 -2.716653,-18.08128 -0.318441,-6.58354 -0.05817,-13.82513 0.64124,-17.84145 0.647479,-3.71809 2.326732,-10.43152 3.731675,-14.91872 1.404942,-4.4872 4.723841,-12.51535 7.375331,-17.84033 2.65149,-5.32498 7.407695,-13.6098 10.569345,-18.41072 3.16165,-4.80091 9.328249,-13.26911 13.703553,-18.81822 4.375304,-5.5491 15.436762,-17.51807 24.581018,-26.5977 9.144255,-9.07962 21.616933,-20.32962 27.717059,-25 6.10013,-4.67037 12.35573,-9.407 13.90134,-10.52584 l 2.81019,-2.03426 -29.709701,-61.35737 C 71.252632,134.32755 58.247031,106.36501 58.691633,105.93512 59.136235,105.50523 95.725,87.614306 140,66.177514 c 44.275,-21.436791 80.725,-38.834089 81,-38.660662 0.275,0.173427 14.225,28.740603 31,63.482613 l 30.5,63.167295 3.5,-0.5325 c 1.925,-0.29288 7.775,-1.43741 13,-2.54342 5.225,-1.106 15.575,-3.0152 23,-4.24267 11.94911,-1.97537 17.17618,-2.23498 45.5,-2.25983 28.45733,-0.025 33.38386,0.21301 44.5,2.14964 6.875,1.19774 16.55,3.35205 21.5,4.78736 4.95,1.4353 12.05173,3.89157 15.78162,5.45836 3.72989,1.56679 10.25489,5.00659 14.5,7.64401 4.24511,2.63742 11.09338,8.19916 15.21838,12.35942 4.125,4.16027 9.00958,10.12713 10.85461,13.25971 1.84504,3.13257 4.39766,8.29603 5.6725,11.47437 1.27483,3.17833 3.02775,9.24732 3.89538,13.48663 0.86763,4.23931 1.56181,10.76431 1.54262,14.5 -0.0192,3.73569 -0.65607,10.27618 -1.4153,14.53442 -0.75922,4.25824 -2.5809,11.34701 -4.04817,15.75281 -1.46726,4.4058 -4.87511,12.34607 -7.57298,17.64505 -2.69788,5.29898 -7.80421,13.96022 -11.34741,19.2472 -3.5432,5.28697 -8.96512,12.76268 -12.04872,16.61268 -3.0836,3.85 -9.69225,11.41014 -14.68589,16.80031 -4.99364,5.39017 -9.24607,9.63359 -9.44984,9.42982 -0.20377,-0.20376 -1.07725,-4.09622 -1.94106,-8.64989 -0.86382,-4.55368 -2.72315,-11.4971 -4.13186,-15.42983 -1.4087,-3.93272 -4.34867,-10.75041 -6.53327,-15.15041 -2.1846,-4.4 -6.05135,-10.925 -8.59278,-14.5 -2.54142,-3.575 -7.97412,-9.82051 -12.07266,-13.87891 -4.09854,-4.05841 -11.20717,-9.82673 -15.79696,-12.81851 -4.58979,-2.99177 -12.05377,-7.14327 -16.58664,-9.22554 -4.53286,-2.08227 -11.84157,-4.95196 -16.24157,-6.37708 -4.4,-1.42511 -10.025,-3.11452 -12.5,-3.75424 -2.475,-0.63972 -8.53159,-1.77011 -13.45909,-2.512 -4.9275,-0.74188 -9.15873,-1.14923 -9.40274,-0.90523 -0.244,0.24401 17.35502,37.12622 39.10894,81.96046 26.77687,55.18643 39.18117,81.75214 38.40273,82.24534 -0.63241,0.40069 -37.10827,18.17439 -81.05747,39.49712 C 275.64317,461.55413 239.36971,479 238.98467,479 Z m 13.19099,-7.36344 C 259.50405,468.14332 295.425,450.78264 332,433.05726 368.575,415.33189 398.86926,400.47595 399.32058,400.04407 399.7719,399.61219 359.77377,315.9506 310.43585,214.12942 261.09792,112.30824 220.40829,29 220.01443,29 219.62058,29 183.56871,46.324692 139.89917,67.499316 96.229625,88.67394 60.159578,106.11241 59.743506,106.25148 c -0.416071,0.13907 37.087753,78.32687 83.341834,173.75068 46.25408,95.42381 86.72355,179.00762 89.93216,185.7418 l 5.83383,12.24395 z M 169.95531,288 c -0.51865,0 -3.57207,-5.5125 -6.78537,-12.25 -3.2133,-6.7375 -21.4912,-44.57737 -40.61756,-84.0886 -19.82402,-40.95246 -34.399665,-72.21412 -33.901753,-72.71203 0.480388,-0.48039 27.836833,-13.96762 60.792093,-29.971629 32.95526,-16.00401 60.32667,-29.183596 60.82536,-29.28797 0.49869,-0.104374 19.30725,37.807852 41.79682,84.249389 22.48956,46.44154 40.74559,84.58368 40.56896,84.76032 -0.17664,0.17663 -27.6394,13.59151 -61.02836,29.81083 C 198.21654,274.72964 170.47395,288 169.95531,288 Z m 1.83668,-1.8072 c 0.9394,-0.45795 28.13948,-13.62617 60.44461,-29.26272 32.30513,-15.63654 58.74263,-28.7793 58.75,-29.20612 0.007,-0.42683 -17.96797,-37.9457 -39.9452,-83.37527 -21.97723,-45.429571 -40.18698,-82.827603 -40.46611,-83.106737 -0.27914,-0.279134 -27.63527,12.659603 -60.79141,28.752749 -33.15613,16.093148 -60.401709,29.358228 -60.545722,29.477958 -0.144013,0.11973 17.501012,36.95928 39.211162,81.86568 21.71014,44.90639 39.95937,82.55678 40.55382,83.66754 0.78245,1.46201 1.55237,1.78968 2.78885,1.18692 z M 141,462.84195 c 3.575,0.0774 8.8424,-0.14072 11.70534,-0.48464 l 5.20533,-0.62531 -4.51898,-5.87276 c -2.48544,-3.23001 -6.53503,-9.66253 -8.99909,-14.29448 -2.46406,-4.63195 -5.7611,-11.94141 -7.32675,-16.24325 C 135.5002,421.01968 133.43742,413.675 132.48189,409 c -1.10367,-5.39974 -1.72233,-12.87684 -1.6962,-20.5 0.0245,-7.15211 0.71288,-15.23193 1.7039,-20 0.91452,-4.4 2.78335,-11.375 4.15295,-15.5 1.3696,-4.125 4.5095,-11.775 6.97756,-17 2.46806,-5.225 6.53219,-12.78178 9.03139,-16.79285 l 4.544,-7.29285 -19.2184,-39.70715 c -10.57012,-21.83893 -19.57449,-40.09503 -20.0097,-40.56911 -0.43522,-0.47408 -4.51544,1.97298 -9.06716,5.43791 -4.55172,3.46493 -12.35384,9.66985 -17.338043,13.78872 -4.984203,4.11887 -14.02055,12.47181 -20.080771,18.56209 -6.060222,6.09028 -14.939968,15.85771 -19.73277,21.7054 -4.792803,5.84769 -11.689823,15.07269 -15.326712,20.5 -3.636888,5.42731 -9.027938,14.81784 -11.980111,20.86784 -2.952173,6.05 -6.55609,15.05 -8.008704,20 -1.953999,6.65854 -2.773152,12.12195 -3.148624,21 -0.422469,9.98931 -0.152809,13.48314 1.609362,20.85154 1.235752,5.16721 4.013017,12.52283 6.672336,17.67176 2.682439,5.1937 7.047658,11.54001 10.616828,15.43513 3.333749,3.6382 8.818875,8.57035 12.18917,10.96033 3.370295,2.38999 8.903108,5.73618 12.29514,7.436 3.392032,1.69981 8.567032,4.01335 11.5,5.14118 2.932968,1.12784 9.607669,3.13802 14.832669,4.46707 5.225,1.32905 13.775,3.16291 19,4.07525 5.225,0.91234 14.675,1.99725 21,2.41091 6.325,0.41367 14.425,0.81542 18,0.89278 z M 441.39195,338 c 0.25009,0 4.37622,-4.3875 9.16918,-9.75 4.79296,-5.3625 12.07519,-14.17881 16.18273,-19.59179 4.10754,-5.41299 9.6193,-13.30999 12.24835,-17.5489 2.62905,-4.2389 6.43235,-10.98804 8.45177,-14.99807 2.01942,-4.01003 5.20402,-11.87033 7.07689,-17.46731 1.94273,-5.80577 3.8948,-14.32757 4.54515,-19.84195 0.85745,-7.27046 0.85358,-11.81737 -0.0156,-18.34908 -0.63556,-4.77592 -2.42708,-12.16753 -3.98115,-16.42579 -1.55407,-4.25826 -4.50332,-10.36502 -6.55389,-13.57057 -2.05057,-3.20555 -6.26789,-8.4974 -9.37183,-11.75967 -3.10393,-3.26227 -8.41034,-7.91053 -11.792,-10.32947 -3.38167,-2.41894 -10.35667,-6.38317 -15.5,-8.80941 -5.14334,-2.42623 -13.40152,-5.56328 -18.35152,-6.97122 -4.95,-1.40794 -14.4,-3.50726 -21,-4.66514 -9.01768,-1.58204 -17.96464,-2.23507 -36,-2.62761 -14.06464,-0.30611 -29.17466,-0.0643 -36.5,0.58401 -6.875,0.60851 -17.9,2.00525 -24.5,3.10387 -6.6,1.09863 -16.3875,2.97333 -21.75,4.166 -5.3625,1.19267 -9.75,2.48576 -9.75,2.87352 0,0.38777 8.4753,18.20408 18.834,39.59181 l 18.834,38.88677 3.916,0.69665 c 2.1538,0.38316 8.17294,1.45554 13.37588,2.38307 5.20293,0.92753 14.18906,3.23581 19.96919,5.12952 5.78012,1.89371 14.12318,5.17785 18.54012,7.29808 4.41695,2.12023 11.18081,5.95441 15.03081,8.5204 3.85,2.56599 10.72916,8.33447 15.28702,12.81886 4.55787,4.48438 10.55431,11.42606 13.32544,15.42596 2.77112,3.9999 6.76468,10.9749 8.87457,15.5 2.10988,4.5251 4.76976,11.09546 5.91083,14.6008 1.14108,3.50533 2.58783,9.13033 3.21502,12.5 0.62718,3.36966 1.29423,6.68916 1.48234,7.37666 0.18811,0.6875 0.54663,1.25 0.79673,1.25 z"
         id="path2784" />
    </g>
    <path
       style="fill:#ffffff;stroke-width:0.332468"
       d="m 169.77108,285.81176 c -0.44803,-0.53984 -3.63828,-7.08383 -28.8776,-59.23513 -30.43923,-62.8957 -50.601378,-104.89899 -51.086229,-106.42662 -0.223457,-0.70405 0.421025,-1.02625 55.647299,-27.819649 31.23046,-15.151667 62.50126,-30.023668 64.39037,-30.623247 0.74362,-0.236015 1.66687,1.593182 22.97217,45.513666 35.80412,73.80956 57.4612,118.91756 57.66005,120.09605 0.14889,0.88242 -17.90655,9.86712 -89.00181,44.28886 -16.64,8.05648 -30.49804,14.64831 -30.79566,14.64851 -0.2976,1.9e-4 -0.70647,-0.1989 -0.90859,-0.44244 z m 27.54841,-23.16163 c 13.44,-6.44167 24.50542,-11.77679 24.58983,-11.85581 0.14077,-0.13179 -8.0068,-16.73717 -8.21224,-16.73717 -0.43906,0 -6.66915,2.80358 -7.42311,3.34044 -1.16816,0.83181 -1.22969,1.63498 -0.31049,4.0534 0.85921,2.26061 0.83945,2.80261 -0.19655,5.39048 -1.53771,3.84113 -3.93995,5.86889 -10.09781,8.52369 -1.65819,0.71488 -3.31076,1.29978 -3.67238,1.29978 -0.98858,0 -2.42617,-2.20292 -5.31557,-8.14545 -3.08378,-6.34231 -4.39979,-9.60356 -4.25963,-10.55589 0.0812,-0.55175 0.48735,-0.78701 1.90964,-1.10613 0.99357,-0.22293 2.01079,-0.32693 2.26049,-0.23112 0.24969,0.0958 0.9132,1.09045 1.47446,2.2103 0.56126,1.11985 1.05501,2.07589 1.09722,2.12453 0.0627,0.0723 8.39763,-3.8319 8.76523,-4.10577 0.29887,-0.22267 -6.66715,-13.77826 -7.66623,-14.91815 l -1.15228,-1.3147 -1.4626,0.4382 c -0.80443,0.24101 -2.47561,0.89116 -3.71373,1.44477 -2.64887,1.18441 -2.91055,1.73168 -1.92613,4.02825 0.88219,2.05807 0.86109,2.67586 -0.11323,3.31427 -1.49271,0.97805 -2.48997,1.03619 -3.38301,0.19722 -1.62738,-1.52884 -6.12695,-10.22367 -6.12695,-11.83952 0,-1.16857 6.74055,-4.85255 10.82541,-5.91652 1.84481,-0.48051 2.17834,-0.46787 5.59014,0.2119 l 3.62827,0.72289 1.32661,2.85293 c 0.72964,1.56911 1.37057,2.9045 1.42429,2.96753 0.20638,0.24212 8.78954,-4.37869 8.78667,-4.73037 -0.005,-0.61555 -3.51304,-8.02923 -5.86997,-12.40533 -1.95172,-3.62373 -2.29083,-4.07681 -2.90543,-3.88174 -2.67674,0.84956 -47.30817,22.83625 -48.78732,24.03399 l -0.77297,0.62592 1.33311,2.60977 c 1.25313,2.45321 1.39224,2.60329 2.31871,2.50166 0.54208,-0.0595 2.23978,-0.62729 3.77268,-1.26183 1.53289,-0.63455 2.83385,-1.10695 2.89101,-1.04979 0.16867,0.16867 17.2802,36.17802 18.12628,38.14479 0.42567,0.98949 0.63155,1.85197 0.45751,1.91662 -0.17403,0.0647 -1.51331,0.74797 -2.97617,1.51847 -3.05375,1.60843 -3.15328,1.8948 -1.7352,4.99231 1.01324,2.21319 1.7613,2.98827 2.50634,2.59686 0.3073,-0.16144 11.5551,-5.564 24.9951,-12.00568 z m 36.72727,-18.09068 c 2.93807,-1.35515 13.49299,-6.383 23.45539,-11.17298 9.96239,-4.78998 18.52487,-8.8574 19.02773,-9.03872 0.65313,-0.2355 0.91429,-0.55843 0.91429,-1.13054 0,-1.08797 -1.95154,-5.9625 -4.68245,-11.69577 -2.22503,-4.67123 -2.27715,-4.74529 -3.19494,-4.53977 -1.49393,0.33451 -6.69152,2.8533 -7.31928,3.54696 -0.54382,0.60092 -0.54198,0.71544 0.0352,2.19039 0.97706,2.49663 1.01381,3.74347 0.16937,5.74641 -1.37705,3.26628 -2.83587,5.21873 -4.89244,6.54796 -2.37943,1.5379 -9.25003,4.5074 -9.87446,4.26779 -0.48748,-0.18706 -8.62149,-16.38491 -8.98565,-17.89377 -0.19638,-0.81369 -0.066,-0.9689 1.46647,-1.74545 2.35346,-1.19259 2.83571,-1.11802 3.62582,0.56064 0.36578,0.77715 0.99307,1.7092 1.39399,2.07123 0.72853,0.65787 0.73046,0.65771 3.44428,-0.2948 3.44538,-1.20928 5.18859,-2.08479 5.43631,-2.73035 0.10728,-0.27957 -0.36242,-1.80632 -1.04378,-3.39278 -1.30341,-3.03484 -6.01127,-12.31311 -6.50788,-12.82579 -0.60681,-0.62641 -7.37304,2.3441 -7.99761,3.51111 -0.21258,0.3972 -0.13225,1.2404 0.24872,2.61064 l 0.5627,2.02395 -0.80713,0.80664 c -0.44393,0.44366 -1.27364,0.89983 -1.84381,1.01372 -0.85792,0.17137 -1.1882,0.0438 -1.91557,-0.74 -0.94528,-1.0186 -6.19062,-11.31199 -6.19062,-12.1484 0,-0.64042 8.9903,-4.82185 11.49829,-5.34791 1.30055,-0.27279 2.46206,-0.27747 4.26878,-0.0172 3.65329,0.52631 4.77651,1.2315 6.17323,3.87569 0.6414,1.21428 1.35217,2.21008 1.57948,2.21289 0.73842,0.009 6.37611,-2.37209 7.25753,-3.06542 1.09883,-0.86434 1.03061,-1.12989 -1.81278,-7.05587 -2.63092,-5.48315 -4.89802,-9.4606 -5.53084,-9.70344 -0.51017,-0.19577 -2.65835,0.7446 -15.12201,6.61963 -9.74401,4.59307 -34.68532,16.54332 -34.8429,16.69445 -0.19575,0.18774 3.08141,6.4898 3.37479,6.4898 0.16429,0 1.43962,-0.50811 2.83406,-1.12913 4.27985,-1.90605 3.72152,-2.13859 6.0589,2.52349 1.12818,2.25024 5.47884,11.18493 9.66813,19.85487 5.80063,12.00469 7.51429,15.83325 7.18663,16.05595 -0.23664,0.16083 -1.74763,0.96485 -3.35776,1.78672 -3.24969,1.65876 -3.15311,1.42588 -1.84501,4.4492 0.7607,1.75814 1.52367,2.67188 2.231,2.67188 0.28262,0 2.91774,-1.10876 5.8558,-2.46393 z m -97.17924,-60.83053 c 3.71715,-1.71503 10.02965,-4.70457 14.02778,-6.64342 l 7.26932,-3.5252 -0.2314,-1.25287 c -0.33706,-1.82501 -2.12287,-5.40872 -2.69524,-5.40872 -0.269,0 -1.67934,0.59844 -3.13408,1.32987 -1.45474,0.73143 -2.86759,1.32987 -3.13968,1.32987 -0.55154,0 -9.08996,-16.88926 -9.23936,-18.27573 -0.0738,-0.68496 0.20369,-0.97943 1.67271,-1.77499 0.96866,-0.52459 1.9635,-0.87616 2.21075,-0.78129 0.24725,0.0949 0.86435,0.93464 1.37133,1.86613 1.17231,2.15392 1.91444,2.36417 4.7862,1.35595 3.22318,-1.13159 5.33026,-2.33878 5.33026,-3.05381 0,-0.81396 -2.54101,-6.43716 -5.26997,-11.66234 -1.70053,-3.25602 -2.36397,-4.23446 -2.87549,-4.24075 -0.96954,-0.0119 -5.49728,1.87458 -6.58176,2.74232 -1.06423,0.85155 -1.15821,1.46203 -0.55446,3.60181 0.49355,1.74918 0.33868,2.39046 -0.74201,3.0726 -1.61669,1.02047 -2.21986,1.00062 -3.25459,-0.10706 -0.90836,-0.9724 -6.32172,-11.44704 -6.32172,-12.23227 0,-0.38637 5.87702,-3.3115 9.23356,-4.59575 3.50783,-1.34213 9.01819,-0.95791 11.07428,0.77217 0.55292,0.46525 1.44837,1.72361 1.98989,2.79634 0.54151,1.07274 1.04444,1.95043 1.11761,1.95043 0.0732,0 1.30531,-0.45085 2.73807,-1.00189 3.37904,-1.29957 5.23157,-2.36393 5.37056,-3.08561 0.19919,-1.03433 -5.59158,-12.92322 -7.53411,-15.46809 l -0.58864,-0.77117 -5.91629,2.70142 c -3.25396,1.48579 -13.26937,6.22668 -22.25646,10.53532 -8.98709,4.30864 -17.49964,8.36515 -18.91678,9.01448 -1.41715,0.64933 -2.57663,1.38262 -2.57663,1.62952 0,0.45092 2.89692,6.42005 3.11576,6.42005 0.0643,0 1.39392,-0.59844 2.95474,-1.32987 1.56083,-0.73143 3.1284,-1.32987 3.48348,-1.32987 0.51324,0 1.45243,1.65304 4.58068,8.06234 7.01683,14.37636 15.12249,31.24192 15.12249,31.46557 0,0.11997 -1.4213,0.92416 -3.15845,1.78708 -3.80437,1.88982 -3.89922,2.25323 -1.61121,6.1731 0.70467,1.20725 0.96711,1.40977 1.61585,1.24695 0.426,-0.10692 3.81585,-1.5976 7.53301,-3.31262 z m 52.77093,-25.68994 c 7.11469,-3.18863 18.32,-8.6963 18.32,-9.00472 0,-0.16106 -2.21884,-4.92226 -4.93075,-10.58043 -5.75635,-12.01016 -6.85985,-14.55935 -6.59794,-15.24189 0.30157,-0.78588 2.6565,-1.82868 4.66195,-2.06438 1.94269,-0.22832 5.78975,0.33144 7.19921,1.04751 1.62927,0.82775 2.54804,2.31461 7.14618,11.56479 3.9872,8.02115 4.75198,9.35069 5.32135,9.25106 1.01779,-0.17811 15.12727,-7.09764 15.12727,-7.41867 0,-0.1551 -2.39265,-5.06549 -5.31701,-10.91198 -4.30589,-8.60852 -5.45973,-10.66009 -6.06753,-10.78825 -0.41279,-0.0871 -1.8726,-0.32682 -3.24403,-0.53283 -3.09962,-0.46562 -4.98756,-0.93799 -4.98523,-1.24732 9.9e-4,-0.1301 0.97344,-1.93745 2.16103,-4.01633 1.1876,-2.07888 2.15927,-3.87421 2.15927,-3.98961 0,-0.1154 -1.73955,-3.74543 -3.86565,-8.066722 l -3.86566,-7.856901 -4.86162,-1.040804 c -2.67389,-0.572442 -5.13083,-1.038915 -5.45986,-1.036607 -0.73423,0.0052 -40.97672,19.939714 -42.09089,20.850184 l -0.79821,0.65228 1.23528,2.56825 c 0.6794,1.41253 1.43611,2.64531 1.68158,2.7395 0.24548,0.0942 1.98598,-0.43313 3.86778,-1.17184 1.8818,-0.73872 3.45979,-1.30478 3.50666,-1.25792 0.40058,0.40057 18.7337,39.29293 18.7337,39.74215 0,0.13851 -1.05312,0.76131 -2.34028,1.38399 -1.28715,0.62269 -2.62668,1.39899 -2.97674,1.72511 -0.58203,0.54225 -0.59845,0.71393 -0.19195,2.0074 0.5731,1.8236 1.82511,4.57289 2.08245,4.57289 0.10974,0 2.08507,-0.84506 4.38964,-1.87791 z"
       id="path254" />
    <path
       style="fill:#ffffff;stroke-width:0.332468"
       d="m 169.78824,285.83244 c -1.10629,-1.333 -80.188237,-165.15269 -80.188237,-166.11139 0,-0.14425 2.805195,-1.62026 6.233766,-3.28003 3.428572,-1.65978 13.041041,-6.33608 21.361041,-10.39178 47.841,-23.320808 90.06438,-43.532156 92.61878,-44.334464 0.62784,-0.197198 1.22003,0.858355 6.4328,11.466248 22.37677,45.536296 73.98163,152.683506 74.22616,154.115826 0.15627,0.91531 -17.29319,9.60645 -89.32969,44.49293 -16.09143,7.79291 -29.63955,14.24838 -30.10693,14.34551 -0.52168,0.1084 -1.00343,-0.009 -1.24769,-0.30285 z m 27.26275,-23.06303 c 13.58767,-6.51683 24.77392,-11.90953 24.85833,-11.98377 0.16053,-0.1412 -8.02388,-16.72849 -8.25408,-16.72849 -0.39424,0 -6.66708,2.86914 -7.44225,3.40402 -1.10295,0.76105 -1.15694,1.60769 -0.24935,3.91027 0.86429,2.1927 0.83951,2.8816 -0.19671,5.47003 -1.53771,3.84113 -3.93995,5.86889 -10.09781,8.52369 -1.65819,0.71488 -3.31076,1.29978 -3.67238,1.29978 -1.25901,0 -4.11992,-4.95339 -7.95126,-13.76682 -2.12501,-4.88825 -2.11164,-5.4592 0.14154,-6.04603 0.91428,-0.23813 1.92765,-0.35477 2.25192,-0.25921 0.32428,0.0956 1.05266,1.09763 1.61863,2.2268 0.56597,1.12918 1.0667,2.09598 1.11273,2.14845 0.046,0.0525 1.88328,-0.79028 4.08278,-1.87276 2.19949,-1.08249 4.18575,-2.03038 4.41391,-2.10643 0.27657,-0.0922 -0.70381,-2.40446 -2.9415,-6.93763 -3.30123,-6.68774 -4.9605,-9.29286 -5.91885,-9.29286 -0.92844,0 -5.82376,2.06154 -6.71431,2.82755 l -0.8964,0.77106 0.62506,1.60849 c 1.02391,2.63483 1.04024,3.24899 0.10269,3.86329 -1.52194,0.99721 -2.51421,1.06015 -3.41231,0.21643 -1.65737,-1.55701 -6.12695,-10.19108 -6.12695,-11.83567 0,-0.78871 2.45334,-2.40884 6.53833,-4.31777 4.5347,-2.11907 5.63542,-2.28687 9.58766,-1.46154 1.79468,0.37477 3.39853,0.68141 3.56412,0.68141 0.16559,0 0.9099,1.30909 1.65401,2.90909 0.74411,1.6 1.39821,2.96199 1.45356,3.02664 0.16926,0.19772 8.78674,-4.37764 8.78674,-4.66522 0,-0.92565 -6.1619,-13.42578 -7.70796,-15.63649 -0.5097,-0.72881 -0.7706,-0.84738 -1.36499,-0.62033 -3.92244,1.49832 -47.13998,22.8402 -48.52852,23.96457 l -0.74333,0.60191 1.36003,2.60732 c 1.60055,3.06841 1.52485,3.05249 5.97855,1.257 1.58847,-0.64038 2.93285,-1.11959 2.98753,-1.06492 0.16289,0.1629 17.28285,36.19017 18.09998,38.08964 0.41368,0.96163 0.69437,1.80114 0.62374,1.86557 -0.0706,0.0644 -1.19535,0.65126 -2.49938,1.30408 -3.22671,1.61533 -3.47971,1.90217 -3.05193,3.46005 0.64547,2.35061 1.95011,4.40758 2.79554,4.40758 0.23541,0 11.54521,-5.33195 25.13289,-11.84878 z m 37.31746,-18.37765 c 3.12021,-1.44739 13.7781,-6.52045 23.68418,-11.27346 9.90609,-4.75301 18.33833,-8.74571 18.73833,-8.87267 0.62984,-0.1999 0.70065,-0.39728 0.52856,-1.47344 -0.25783,-1.61242 -1.91687,-5.69415 -4.6404,-11.4168 -2.14649,-4.51017 -2.19547,-4.57884 -3.11307,-4.3641 -1.37487,0.32176 -6.12282,2.58778 -7.08253,3.38022 l -0.83077,0.68599 0.63201,1.60892 c 0.95501,2.43119 1.00504,3.71822 0.22178,5.70536 -1.23585,3.13537 -2.85056,5.28669 -5.02086,6.68943 -2.43088,1.57115 -9.16508,4.4638 -9.81304,4.21515 -0.4945,-0.18976 -8.61143,-16.36829 -8.97506,-17.88895 -0.19444,-0.81308 -0.0628,-0.96949 1.46844,-1.74545 2.31654,-1.17388 2.77317,-1.10445 3.6871,0.56064 0.98811,1.80027 1.65941,2.57663 2.22795,2.57663 0.75519,0 6.54173,-2.31742 7.38455,-2.9574 0.73924,-0.56133 0.76393,-0.68381 0.38234,-1.89666 -0.61692,-1.96082 -7.06205,-14.80973 -7.51609,-14.98396 -0.53143,-0.20393 -5.22082,1.63649 -6.64212,2.60679 -0.62363,0.42575 -1.20941,0.96914 -1.30174,1.20755 -0.0923,0.2384 0.0815,1.33049 0.38635,2.42686 l 0.55421,1.9934 -0.80713,0.80664 c -0.44393,0.44366 -1.27364,0.89983 -1.84381,1.01372 -0.85719,0.17123 -1.19003,0.0431 -1.92255,-0.74 -0.96357,-1.03011 -6.18364,-11.27826 -6.18364,-12.13983 0,-0.66561 8.88907,-4.80919 11.48516,-5.35373 1.30185,-0.27306 2.47166,-0.28073 4.22802,-0.0277 3.47226,0.50023 4.77555,1.21235 5.84299,3.19262 0.48696,0.90339 1.12974,1.9596 1.4284,2.34715 l 0.54302,0.70463 3.11412,-1.23541 c 1.71277,-0.67948 3.5599,-1.59268 4.10473,-2.02934 l 0.99061,-0.79393 -1.1308,-2.61356 c -2.55434,-5.90378 -6.38373,-12.99785 -7.1815,-13.30398 -0.47293,-0.18148 -3.47718,1.14486 -15.94423,7.03918 -9.87704,4.66979 -33.85566,16.14322 -33.99364,16.26547 -0.0862,0.0764 2.86561,6.23585 3.10312,6.47516 0.0757,0.0763 1.37188,-0.39246 2.88033,-1.0417 1.50846,-0.64923 3.08512,-1.28464 3.5037,-1.41202 0.71743,-0.21831 1.04851,0.35578 5.77742,10.01832 8.61725,17.60755 14.24053,29.43067 14.10315,29.65234 -0.0727,0.11723 -1.48754,0.87724 -3.1442,1.6889 -1.65666,0.81166 -3.07855,1.6489 -3.15976,1.86052 -0.19463,0.50721 1.24545,4.02707 1.97942,4.8381 0.31657,0.34981 0.8047,0.63602 1.08471,0.63602 0.28002,0 3.06203,-1.18423 6.18224,-2.63162 z M 131.7108,186.05275 c 3.56873,-1.54258 11.22529,-5.12731 19.47882,-9.11978 4.57146,-2.21135 6.8987,-3.51084 6.8987,-3.85212 0,-0.64458 -1.44325,-4.51048 -2.04155,-5.46851 -0.24512,-0.3925 -0.60461,-0.71363 -0.79887,-0.71363 -0.19426,0 -1.5907,0.59844 -3.1032,1.32987 -1.5125,0.73143 -2.95817,1.32987 -3.21259,1.32987 -0.5203,0 -9.06512,-16.95837 -9.20725,-18.27306 -0.073,-0.67472 0.20354,-0.98 1.57385,-1.73769 2.11554,-1.16977 2.40161,-1.16009 3.09078,0.10459 1.01909,1.87011 2.08853,2.95031 2.92089,2.95031 1.16191,0 6.62317,-2.25865 7.31818,-3.02663 0.52434,-0.57939 0.54284,-0.79648 0.16102,-1.88931 -0.63977,-1.8311 -6.63158,-13.7898 -7.19417,-14.35841 -0.42682,-0.4314 -0.7562,-0.39753 -2.75624,0.28337 -1.24932,0.42533 -2.98659,1.21842 -3.8606,1.76242 l -1.58912,0.98909 0.237,1.5535 c 0.47351,3.10394 0.40077,3.75793 -0.48878,4.39467 -1.58749,1.13631 -2.25654,1.12826 -3.34813,-0.0403 -0.95784,-1.02536 -6.29343,-11.38626 -6.29343,-12.22085 0,-0.41357 5.55578,-3.16682 9.23356,-4.57583 3.50646,-1.34337 9.01739,-0.95964 11.07428,0.77112 0.55292,0.46525 1.44837,1.72361 1.98989,2.79634 0.54151,1.07274 1.05333,1.95043 1.13736,1.95043 0.084,0 1.31617,-0.45954 2.73807,-1.02121 3.45624,-1.36526 5.41307,-2.53567 5.40322,-3.23176 -0.0109,-0.76799 -4.17608,-9.64344 -5.88339,-12.53664 -2.38676,-4.04458 -1.30457,-4.00615 -9.25327,-0.32853 -12.87018,5.95464 -41.86874,19.86654 -42.3584,20.3212 -0.42132,0.39121 -0.29051,0.84706 0.9974,3.47577 0.81527,1.66403 1.57747,3.08447 1.69376,3.15655 0.1163,0.0721 1.48484,-0.46569 3.0412,-1.19503 1.55636,-0.72933 3.11099,-1.32606 3.45472,-1.32606 0.45336,0 1.02385,0.79882 2.07759,2.90909 3.18843,6.38534 17.64622,36.37941 17.64622,36.60879 0,0.1348 -1.20391,0.83206 -2.67534,1.54946 -3.22183,1.57083 -3.77743,2.10777 -3.49791,3.38043 0.25649,1.1678 2.09183,4.42496 2.49337,4.42496 0.16295,0 1.46902,-0.50692 2.90236,-1.12648 z m 57.88334,-28.0051 c 5.86693,-2.58988 18.36431,-8.74917 18.36431,-9.05079 0,-0.13656 -2.22077,-4.87932 -4.93504,-10.53946 -5.72842,-11.94562 -6.85784,-14.55699 -6.59365,-15.24546 0.10582,-0.27576 0.83553,-0.84476 1.62158,-1.26445 1.19885,-0.64009 1.91142,-0.75959 4.42139,-0.74149 6.5123,0.047 7.03643,0.52003 12.11357,10.93317 4.30882,8.83733 5.44133,10.82187 6.17564,10.82187 0.72377,0 15.12378,-7.03242 15.12378,-7.38588 0,-0.16503 -2.39724,-5.06764 -5.3272,-10.8947 -4.77218,-9.49083 -5.42165,-10.61393 -6.23376,-10.77971 -0.49862,-0.10177 -1.95384,-0.34394 -3.23384,-0.53814 -2.75826,-0.41848 -4.82078,-0.93687 -4.82078,-1.21165 0,-0.10859 0.98342,-1.96179 2.18537,-4.11822 l 2.18537,-3.92078 -3.88112,-7.962925 -3.88113,-7.962919 -4.87048,-1.042708 c -2.67876,-0.57349 -5.08287,-1.04082 -5.34246,-1.038512 -0.97799,0.0087 -40.44669,19.559214 -42.20342,20.905134 l -0.78448,0.60104 1.25831,2.5805 c 0.69207,1.41927 1.4426,2.65122 1.66786,2.73765 0.22525,0.0864 1.94921,-0.44724 3.83101,-1.18595 1.8818,-0.73872 3.4678,-1.29677 3.52445,-1.24013 0.39465,0.39465 18.71591,39.2345 18.71591,39.67648 0,0.16825 -0.92285,0.74485 -2.05078,1.28133 -2.72927,1.29813 -3.60117,2.0224 -3.60117,2.99143 0,0.73263 1.91377,5.46451 2.21007,5.46451 0.0694,0 2.03174,-0.84116 4.36069,-1.86924 z"
       id="path256" />
    <path
       style="fill:#ffffff;stroke-width:0.332468"
       d="m 169.57382,285.49351 c -1.63649,-2.4976 -79.973817,-164.87601 -79.973817,-165.77054 0,-0.1447 3.254026,-1.84421 7.231169,-3.77667 3.977148,-1.93247 16.207788,-7.88138 27.179218,-13.2198 46.84046,-22.791376 83.28739,-40.210957 85.80541,-41.010145 0.62583,-0.198631 1.2577,0.936845 6.86491,12.336337 20.94815,42.587718 73.5529,151.834908 73.79443,153.252938 0.14914,0.87562 -18.28827,10.09087 -78.69331,39.33194 -40.76889,19.73554 -40.52029,19.61699 -41.13642,19.61699 -0.31511,0 -0.79733,-0.34247 -1.07159,-0.76105 z m 8.16309,-13.48977 c 2.99899,-1.43796 8.74414,-4.19158 12.76699,-6.11917 4.02286,-1.92758 9.85767,-4.72878 12.96624,-6.22488 3.10857,-1.4961 8.49454,-4.07223 11.96883,-5.72473 3.47428,-1.65251 6.37272,-3.05427 6.44096,-3.11504 0.10546,-0.0939 -7.77669,-16.38075 -8.06914,-16.6732 -0.1505,-0.15049 -5.46545,2.123 -7.01316,2.99991 -0.72987,0.41354 -1.38004,1.02704 -1.4448,1.36335 -0.0648,0.3363 0.21195,1.58754 0.61492,2.78053 0.87218,2.58209 0.75835,3.715 -0.66352,6.60323 -1.09124,2.21661 -2.6723,3.8407 -5.15581,5.29614 -2.15177,1.26102 -7.34539,3.47506 -8.15168,3.47506 -1.25901,0 -4.11992,-4.95339 -7.95126,-13.76682 -2.12501,-4.88825 -2.11164,-5.4592 0.14154,-6.04603 0.91428,-0.23813 1.92765,-0.35477 2.25192,-0.25921 0.32428,0.0956 1.05266,1.09763 1.61863,2.2268 0.56597,1.12918 1.06896,2.09824 1.11775,2.15347 0.23053,0.26093 8.47663,-4.13252 8.47663,-4.51627 0,-0.62109 -5.81749,-12.27434 -6.90789,-13.83748 -1.48093,-2.12298 -1.6342,-2.14516 -5.16501,-0.7477 -1.73007,0.68475 -3.41651,1.54437 -3.74764,1.91027 -0.58117,0.64218 -0.58095,0.71952 0.006,2.22866 1.01584,2.61059 1.02355,3.20389 0.0499,3.84183 -0.47405,0.31061 -1.28647,0.64966 -1.80538,0.75344 -0.80476,0.16095 -1.11977,-0.0173 -2.14227,-1.21181 -1.64091,-1.91703 -5.3073,-9.35424 -5.35317,-10.85881 -0.035,-1.1485 0.0522,-1.2369 2.76279,-2.7984 4.04223,-2.32867 7.52285,-3.70085 9.49834,-3.74456 0.91649,-0.0203 2.99836,0.25147 4.62637,0.6039 l 2.96001,0.64077 1.32358,2.84645 c 0.72796,1.56554 1.37014,2.90063 1.42708,2.96687 0.14402,0.16757 7.85205,-3.8905 8.3935,-4.41895 0.36487,-0.35611 0.15484,-1.05618 -1.21906,-4.06356 -1.74036,-3.80952 -4.6194,-9.39143 -5.92745,-11.49215 l -0.76964,-1.23605 -1.41558,0.60956 c -6.39187,2.75239 -47.51547,23.06823 -48.08561,23.7552 -0.72292,0.87107 1.77745,5.53591 2.96726,5.53591 0.37031,0 2.03632,-0.5264 3.70224,-1.16978 1.66592,-0.64338 3.07377,-1.12495 3.12857,-1.07016 0.0548,0.0548 1.16925,2.33912 2.47657,5.07628 12.66687,26.52084 16.27592,34.21258 16.27592,34.68776 0,0.14021 -0.92285,0.69387 -2.05078,1.23035 -3.84444,1.82854 -4.22941,2.5504 -2.91065,5.45775 0.76369,1.68362 1.55095,2.66572 2.13688,2.66572 0.21839,0 2.85079,-1.17651 5.84977,-2.61445 z m 54.41115,-26.60317 c 8.69412,-3.95049 44.67033,-21.23703 45.12235,-21.68124 0.48308,-0.47475 -1.13707,-4.91806 -4.11028,-11.27257 -2.52381,-5.39402 -2.58309,-5.48392 -3.54653,-5.3782 -1.17528,0.12897 -5.97064,2.34545 -7.10897,3.28586 l -0.80966,0.66889 0.72655,1.99261 c 0.89734,2.46104 0.90599,3.27302 0.0579,5.4248 -1.20909,3.06747 -2.83824,5.22735 -4.99369,6.62049 -2.43088,1.57115 -9.16508,4.4638 -9.81304,4.21515 -0.4945,-0.18976 -8.61143,-16.36829 -8.97506,-17.88895 -0.19444,-0.81308 -0.0628,-0.96949 1.46844,-1.74545 2.37652,-1.20428 2.74299,-1.12307 3.88042,0.85983 1.46813,2.5594 1.56311,2.57944 5.40102,1.13985 3.76524,-1.41235 4.85524,-2.20111 4.55155,-3.29371 -0.41919,-1.50814 -7.46533,-15.51675 -7.80472,-15.51675 -0.98982,0 -5.71116,2.14043 -6.79466,3.08038 l -1.23971,1.07546 0.58433,2.0944 0.58432,2.09439 -0.80713,0.80664 c -0.44393,0.44366 -1.27364,0.89983 -1.84381,1.01372 -0.85719,0.17123 -1.19003,0.0431 -1.92255,-0.74 -0.95814,-1.02431 -6.18364,-11.27598 -6.18364,-12.13139 0,-0.33739 1.31727,-1.14196 3.74026,-2.2845 6.93122,-3.26836 8.94105,-3.73592 12.86228,-2.99228 2.99198,0.56742 3.89934,1.19381 5.3653,3.70388 0.73382,1.25647 1.48058,2.28449 1.65947,2.28449 0.70899,0 6.28164,-2.45806 7.1594,-3.15797 l 0.93429,-0.74497 -0.96426,-2.28749 c -2.31251,-5.48591 -6.84899,-13.75762 -7.54513,-13.75762 -0.50826,0 -10.26003,4.52544 -26.54837,12.32012 -8.49622,4.06582 -17.21081,8.23095 -19.36578,9.25586 l -3.91811,1.86348 1.53648,3.15819 c 0.84506,1.73701 1.59332,3.21551 1.66279,3.28556 0.0695,0.07 1.36563,-0.39944 2.88034,-1.0433 4.60715,-1.95839 3.84633,-2.37537 6.94489,3.80623 2.84968,5.68507 16.58835,34.15671 16.58835,34.37722 0,0.0702 -1.23428,0.74424 -2.74285,1.49785 -3.88577,1.94112 -3.96878,2.03316 -3.36991,3.7363 0.65642,1.86677 2.01983,3.87755 2.62917,3.87755 0.27312,0 2.10373,-0.73026 4.06801,-1.62281 z m -98.24221,-60.34675 c 5.5344,-2.48523 20.3023,-9.51554 22.63119,-10.77364 1.47286,-0.79566 1.59095,-0.94936 1.413,-1.83911 -0.2678,-1.33898 -1.84382,-4.78547 -2.39903,-5.24625 -0.35302,-0.29298 -1.10146,-0.0688 -3.31337,0.99258 -1.57153,0.75408 -3.06101,1.37105 -3.30994,1.37105 -0.51758,0 -9.07603,-16.99787 -9.20688,-18.28572 -0.0716,-0.70438 0.20347,-0.98183 1.80304,-1.81888 1.85446,-0.97042 1.89956,-0.97679 2.57663,-0.36405 0.37902,0.34301 0.68913,0.77335 0.68913,0.95633 0,0.7379 1.72605,2.55651 2.4273,2.55747 1.13745,0.002 6.72542,-2.26936 7.38933,-3.00297 0.57295,-0.63311 0.56204,-0.73733 -0.30354,-2.90009 -0.49382,-1.23387 -2.20043,-4.78677 -3.79248,-7.89534 l -2.89464,-5.65195 -1.13092,0.0545 c -0.622,0.03 -2.41733,0.70323 -3.98961,1.49611 l -2.85869,1.4416 0.0585,1.32987 c 0.0322,0.73143 0.10695,1.98324 0.16623,2.7818 0.0916,1.23374 -0.0171,1.54189 -0.72339,2.05053 -1.58323,1.1402 -2.25566,1.13284 -3.34813,-0.0367 -0.96428,-1.03226 -6.29343,-11.38885 -6.29343,-12.23054 0,-0.42082 5.50794,-3.14616 9.23356,-4.56878 3.49036,-1.33279 9.01864,-0.95595 11.04987,0.75323 0.53951,0.45395 1.45522,1.71527 2.03494,2.80293 0.89766,1.68418 1.1576,1.94468 1.75224,1.75598 1.7342,-0.55032 6.09611,-2.52612 6.84144,-3.09894 0.78541,-0.60363 0.8029,-0.69223 0.37607,-1.90443 -0.76821,-2.18167 -5.63791,-11.90748 -6.68762,-13.35656 -0.54971,-0.75885 -1.22709,-1.37973 -1.50529,-1.37973 -0.77685,0 -20.50038,9.22904 -41.82248,19.56958 -8.67418,4.20671 -8.03897,3.35873 -5.82663,7.77828 l 1.29101,2.57903 1.0756,-0.46588 c 0.59158,-0.25624 1.94012,-0.85576 2.99677,-1.33228 1.05664,-0.47651 2.19183,-0.86639 2.52264,-0.86639 0.45762,0 1.70133,2.24643 5.19986,9.39221 6.68974,13.66383 14.46023,29.85764 14.46023,30.13533 0,0.13206 -1.0381,0.7423 -2.30688,1.3561 -3.39944,1.64454 -4.14017,2.3175 -3.8758,3.52117 0.2748,1.25116 2.10122,4.46792 2.53681,4.46792 0.18166,0 2.46019,-0.95644 5.0634,-2.12541 z m 56.35325,-27.33141 c 4.01429,-1.79805 17.29144,-8.27252 17.62459,-8.59445 0.13971,-0.135 -0.89821,-2.4121 -4.25059,-9.32536 -5.05179,-10.41777 -7.05085,-14.90713 -7.09907,-15.94259 -0.0389,-0.83545 0.17699,-1.10764 1.45039,-1.82857 1.30831,-0.7407 1.8717,-0.84431 4.48831,-0.82544 6.52309,0.047 7.05267,0.52589 12.1546,10.98989 4.90594,10.06206 5.41238,10.89247 6.47967,10.62459 1.24097,-0.31146 14.31885,-6.69861 14.57966,-7.1206 0.32906,-0.53243 -10.01503,-20.92744 -10.89358,-21.47842 -0.39047,-0.24488 -1.91442,-0.61495 -3.38654,-0.82237 -2.94975,-0.41561 -5.1364,-0.94903 -5.1364,-1.25299 0,-0.10817 0.97723,-1.95913 2.17162,-4.11323 l 2.17162,-3.91655 -3.86218,-7.956483 -3.86216,-7.956477 -5.13573,-1.094542 -5.13573,-1.094542 -2.73216,1.261221 c -5.68669,2.625091 -38.67302,19.119283 -39.41918,19.710823 l -0.78052,0.61877 1.36846,2.72174 c 1.58172,3.14588 1.21681,3.07431 5.9857,1.17387 1.5405,-0.61391 2.84931,-1.06779 2.90847,-1.00863 0.44425,0.44425 18.72698,39.20372 18.72698,39.70128 0,0.17839 -1.0863,0.84721 -2.414,1.48628 -2.91797,1.40453 -3.39073,1.90454 -3.11311,3.2926 0.20948,1.04742 1.85373,4.94466 2.08616,4.94466 0.069,0 2.33008,-0.98752 5.02472,-2.19448 z"
       id="path258" />
    <path
       style="fill:#ffffff;stroke-width:0.166234"
       d="m 192.21406,115.32468 c -1.14788,-1.52288 -3.85105,-6.63451 -5.26279,-9.9518 -0.94622,-2.22343 -0.95984,-2.32029 -0.40528,-2.88289 0.80129,-0.8129 2.86119,-2.07181 5.45402,-3.333229 3.07863,-1.497763 4.6615,-2.122814 5.0575,-1.997129 0.93861,0.297905 3.74397,5.668578 6.11041,11.697978 0.70551,1.79755 0.72684,1.90103 0.45403,2.20248 -0.76118,0.8411 -9.67075,4.80485 -10.80016,4.80485 -0.11028,0 -0.38376,-0.24312 -0.60773,-0.54026 z"
       id="path260" />
    <path
       style="fill:#ffffff;stroke-width:0.166234"
       d="m 192.03866,115.07533 c -0.85671,-1.18373 -1.82556,-2.91518 -3.35488,-5.9956 -1.28259,-2.58342 -2.58507,-5.592 -2.58507,-5.97117 0,-0.29044 0.88026,-1.06993 2.16104,-1.91366 2.11154,-1.391002 7.88185,-4.114377 8.71758,-4.114377 0.81762,0 4.37366,6.839707 6.42941,12.366367 0.46038,1.23768 0.47208,1.32937 0.20703,1.62225 -0.76322,0.84334 -9.66201,4.7958 -10.79755,4.7958 -0.11334,0 -0.46324,-0.35533 -0.77756,-0.78961 z"
       id="path262" />
    <path
       style="fill:#ffffff;stroke-width:0.47018"
       d="m 217.69339,358.22285 c -1.55159,-0.22544 -3.35003,-0.79238 -3.99653,-1.25986 -0.66499,-0.48085 -2.56401,-3.59592 -4.37291,-7.17314 l -3.19746,-6.32319 1.08165,-0.89286 c 1.28204,-1.05827 12.90411,-6.74368 14.21588,-6.95427 0.73877,-0.1186 1.53397,1.05728 4.23497,6.26239 l 3.32541,6.4084 5.52128,-2.76833 c 3.03669,-1.52259 5.52127,-2.96151 5.52127,-3.1976 0,-1.63009 -15.38721,-32.92599 -16.37505,-33.30506 -0.36324,-0.13939 -1.8043,0.30757 -3.20235,0.99323 -1.39804,0.68567 -2.74523,1.24667 -2.99375,1.24667 -0.47948,0 -2.81858,-4.309 -2.81858,-5.19228 0,-0.28696 4.91926,-2.9098 10.93169,-5.82853 14.34972,-6.96608 18.59082,-8.84334 19.17008,-8.48533 0.52654,0.32542 2.96356,4.9416 2.7249,5.16149 -0.082,0.0756 -1.57732,0.78181 -3.32287,1.56939 -1.74554,0.78758 -3.17371,1.66228 -3.17371,1.94378 0,0.55906 4.30824,9.79908 11.72273,25.1421 l 4.75705,9.84391 -1.30474,2.54135 c -2.62097,5.10509 -4.06169,6.25493 -14.15096,11.29383 -8.62874,4.30947 -20.41963,9.57172 -21.15432,9.44115 -0.17743,-0.0315 -1.59209,-0.24179 -3.14368,-0.46724 z"
       id="path264" />
    <path
       style="fill:#ffffff;stroke-width:0.47018"
       d="m 272.26322,332.26198 c -0.63527,-0.83289 -1.81597,-2.92672 -2.62378,-4.65295 l -1.46873,-3.13861 10.0564,-16.36183 c 13.92269,-22.65233 13.51965,-21.94949 13.51965,-23.57595 0,-1.44086 -1.65067,-6.51367 -2.37749,-7.30648 -0.4056,-0.44242 -15.30012,6.34368 -17.19509,7.83426 -0.86274,0.67864 -1.11535,1.3323 -1.11535,2.88615 0,1.31888 -0.2826,2.26199 -0.82281,2.74598 -1.02839,0.92133 -13.18097,6.93146 -14.01553,6.93146 -0.75599,0 -2.39676,-2.23941 -2.77695,-3.79012 -0.20226,-0.825 0.21773,-1.98966 1.49682,-4.15075 2.44855,-4.13693 5.78693,-6.37154 19.87991,-13.30702 17.35085,-8.53875 17.43085,-8.56736 24.44937,-8.74525 l 5.87725,-0.14896 2.15648,5.05366 2.15648,5.05365 -5.62402,8.95949 c -7.95043,12.66561 -14.60416,23.68173 -16.56747,27.42958 -1.44508,2.75857 -1.61157,3.39092 -1.18686,4.50799 0.63344,1.66607 0.68607,1.65056 10.13197,-2.98541 9.67812,-4.74994 9.49003,-4.60693 8.5218,-6.47929 -0.41645,-0.80532 -0.62476,-1.8093 -0.46291,-2.23105 0.28154,-0.73368 9.7146,-5.53444 13.49844,-6.86974 1.72678,-0.60938 1.85404,-0.58505 2.77495,0.53054 0.9687,1.17348 4.11362,7.55582 4.11362,8.34824 0,0.59353 -41.43207,20.87829 -49.70262,24.33394 -1.49172,0.62328 -1.57359,0.59679 -2.69353,-0.87153 z"
       id="path266" />
    <path
       style="fill:#ffffff;stroke-width:0.47018"
       d="m 250.12883,433.753 c -2.62929,-4.82348 -20.44585,-40.99905 -20.44585,-41.51418 0,-0.20119 3.545,-2.1285 7.87778,-4.28291 l 7.87777,-3.9171 7.52063,0.99152 c 11.78995,1.5544 10.09498,2.28559 15.30034,-6.60038 l 4.44496,-7.58792 8.46325,-4.10439 c 16.87681,-8.1847 48.7142,-23.49529 52.93113,-25.45456 l 4.31822,-2.00633 1.12431,1.38964 c 1.0453,1.292 6.74628,11.99789 6.74628,12.66888 0,0.46624 -7.78576,4.00388 -8.76761,3.98377 -0.4791,-0.01 -1.43804,-0.83805 -2.13099,-1.84052 -1.08496,-1.56959 -1.63402,-1.90034 -3.95431,-2.38203 -3.48301,-0.72307 -7.17213,0.12633 -13.2464,3.0499 l -4.35521,2.09618 2.70012,5.42441 c 2.89002,5.8059 3.27139,6.11661 5.98818,4.87875 1.38858,-0.63267 1.4819,-1.30212 0.45763,-3.28283 -0.40696,-0.78699 -0.67144,-1.49242 -0.58772,-1.56762 0.54635,-0.49082 8.00533,-4.0075 8.5,-4.0075 0.6135,0 7.78409,13.8813 7.37956,14.28583 -0.49947,0.49946 -7.29248,3.58102 -7.89404,3.58102 -0.36105,0 -1.3794,-0.63475 -2.26298,-1.41054 -1.76761,-1.55199 -2.81818,-1.74442 -4.16141,-0.76223 -0.79249,0.57949 -0.82672,0.84824 -0.32243,2.53142 0.31031,1.0357 1.93306,4.65838 3.60613,8.05038 l 3.04194,6.16728 2.96699,-1.11677 c 6.71106,-2.52603 9.93431,-4.7098 12.18123,-8.25283 1.50267,-2.36947 1.64964,-3.86027 0.62283,-6.31778 l -0.70867,-1.6961 3.7544,-1.88768 c 5.67231,-2.85198 5.49106,-2.93644 8.81404,4.10712 1.55552,3.29714 2.97912,6.4787 3.16356,7.07013 0.3145,1.00846 -0.25905,1.36329 -9.22301,5.70583 -5.2571,2.54678 -20.22969,9.84142 -33.27243,16.21031 -13.04273,6.3689 -23.87,11.41819 -24.06059,11.22065 -0.1906,-0.19753 -3.56948,-7.02396 -7.50865,-15.16983 -3.93917,-8.14587 -7.31389,-14.98484 -7.4994,-15.19772 -0.36357,-0.41723 -0.62722,-0.006 -5.19462,8.09342 -1.66093,2.9455 -3.44303,5.62377 -3.96023,5.9517 -0.77876,0.49377 -1.95032,0.40495 -6.81761,-0.51689 -6.47941,-1.22716 -9.4036,-1.42429 -9.4036,-0.63393 0,0.64589 5.49664,12.35596 10.40321,22.163 2.0362,4.0699 3.70219,7.56461 3.70219,7.76604 0,0.33438 -10.87382,5.95732 -14.43518,7.46455 l -1.50523,0.63704 z m 62.30585,-33.88854 c 0,-0.90763 -0.54786,-2.96625 -1.21746,-4.5747 -1.86311,-4.47535 -12.75574,-26.28034 -13.78547,-27.59593 -0.90151,-1.15177 -0.9255,-1.15502 -2.60666,-0.35333 -0.93322,0.44502 -1.83416,1.16715 -2.00207,1.60473 -0.16792,0.43758 0.17729,2.18344 0.76713,3.87969 1.20123,3.45448 11.85759,25.4891 13.82971,28.5963 l 1.27143,2.00322 1.87169,-0.95487 c 1.64526,-0.83935 1.8717,-1.15452 1.8717,-2.60511 z"
       id="path268" />
  </g>
</svg>
