<svg xmlns="http://www.w3.org/2000/svg" width="326.718" height="303.224" viewBox="0 0 86.444 80.228" xmlns:v="https://vecta.io/nano"><defs><filter id="A" x="-.018" y="-.014" width="1.036" height="1.027" color-interpolation-filters="sRGB"><feGaussianBlur stdDeviation=".141"/></filter></defs><g transform="translate(-567.377 -15.776)"><path d="M613.768 23.036c-7.908-.026-15.856 1.597-23.011 4.998-5.798 2.75-11.073 6.681-15.155 11.65-3.508 4.255-6.105 9.287-7.36 14.667-.754 3.194-1.04 6.506-.758 9.779.317 3.821 1.385 7.56 2.984 11.037 1.784 3.868 4.318 7.402 7.49 10.253 3.004 2.71 6.555 4.801 10.363 6.161 4.969 1.787 10.321 2.383 15.576 2.033 5.95-.386 11.792-1.925 17.264-4.267 2.292-.975 4.514-2.107 6.708-3.285 3.17-1.7 6.288-3.503 9.275-5.509a43.85 43.85 0 0 0 2.534-1.834l-3.367.885 1.966-2.56c-3.891 2.451-7.826 4.861-11.998 6.809-2.129.989-4.354 1.753-6.601 2.422-4.459 1.309-9.089 2.098-13.743 2.123-4.606.018-9.248-.752-13.505-2.544-3.55-1.494-6.809-3.726-9.37-6.614-2.299-2.581-4.019-5.657-5.096-8.937-.744-2.246-1.236-4.59-1.29-6.961-.076-2.855.419-5.735 1.537-8.368 1.371-3.265 3.564-6.142 6.165-8.527 3.402-3.12 7.494-5.427 11.809-7.03 5.417-2.008 11.202-2.905 16.965-2.993 4.515-.07 9.026.376 13.473 1.14a137.37 137.37 0 0 1 4.265.802l4.356-4.561-1.485-7.123c-6.366-2.428-13.184-3.623-19.992-3.646zm35.066 2.4l-7.133 4.082-7.405-3.562 1.678 8.045-5.676 5.943 8.169.89 3.898 7.235 3.372-7.494 8.085-1.472-6.085-5.522 1.099-8.145zm-1.973 2.931l-.785 5.819 4.348 3.946-5.777 1.052-2.41 5.356-2.785-5.17-5.838-.636 4.056-4.247-1.2-5.749 5.293 2.545 5.096-2.916z" paint-order="stroke fill markers" fill="#f60"/><path d="M642.302 46.304l-3.342-6.202-7.004-.763 4.866-5.095-1.438-6.897 6.349 3.053 6.115-3.499-.942 6.982 5.217 4.734-6.931 1.261-2.89 6.425z" fill="#06f" paint-order="stroke fill markers"/><path d="M609.688 19.743l17.052-.962c1.252-.051 2.557.131 3.651.776.724.424 1.33 1.114 1.5 1.952.121.541.044 1.103-.117 1.628l-16.71 61.568c-.639 2.321-1.762 4.566-3.532 6.231-1.547 1.476-3.563 2.412-5.661 2.773-2.729.477-5.544.11-8.181-.674l-3.282-1.078-9.963-3.31c-1.952-.677-3.854-1.659-5.29-3.173-1.09-1.139-1.831-2.617-2.026-4.186-.258-1.963.238-3.946 1.014-5.74l1.317-2.796 23.205-48.82c.565-1.129 1.526-2.012 2.574-2.69 1.331-.846 2.869-1.403 4.449-1.5z" fill="#1a1a1a" stroke="#06f" stroke-linejoin="round" paint-order="stroke markers fill" stroke-width="4.16"/><path d="M609.688 19.743c-1.673.104-3.295.716-4.678 1.652-1.022.701-1.943 1.613-2.45 2.76l-12.018 25.284 33.17 3.407 8.137-29.984c.201-.748.108-1.583-.321-2.236-.535-.833-1.455-1.335-2.388-1.596s-1.906-.295-2.864-.224l-16.587.937z"/><g fill="#06f"><path d="M599.958 52.081c-.217-.026-.491.159-.44.397l.481.776 1.395 2.207c.218.238.71.001.634-.321l-.482-.766-1.415-2.208c-.043-.051-.109-.079-.175-.086zm10.514 1.185c-.208.011-.37.158-.551.246l-3.775 2.124c-.176.092-.235.383-.033.482.202.112.409-.02.583-.122l3.939-2.216c.189-.096.221-.409-.003-.484a.39.39 0 0 0-.16-.029zm-5.478.025l-2.317 1.236 3.562.437-1.245-1.673zm-12.549-.352c-.213-.028-.489.184-.394.412.094.137.277.099.42.131l2.58.318c.196.007.429-.166.385-.379-.061-.179-.274-.142-.422-.172l-2.568-.311zm22.013 2.662c-.218-.035-.506.147-.445.391.065.2.297.193.469.217l3.365.415c.214.019.484-.167.414-.403-.075-.206-.316-.195-.496-.22l-3.307-.4zm-13.747.03l-2.254 1.329 1 1.809 1.254-3.139zm6.581.854l-1.175 3.265 2.373-1.401-1.198-1.864zm-7.092 2.59c-.219-.034-.396.125-.585.208l-3.816 1.979c-.173.09-.276.369-.093.501s.388.002.556-.088l3.973-2.06c.174-.088.268-.371.08-.494-.035-.024-.075-.039-.116-.046zm4.747.706c-.254-.077-.598.165-.504.444l.556.794 1.82 2.554c.238.261.768.016.684-.34-.081-.171-.214-.313-.319-.471l-2.085-2.891c-.039-.045-.094-.076-.152-.091zm-4.545.566l1.203 1.86 2.439-1.295-3.641-.564zm-13.333 3.731c-.202-.081-.417.131-.301.328.034.201.198.34.381.408.12.021.185.037.076.131l-.897 1.162c-.104.223.175.374.331.471.22.11.425.29.68.3.174.007.235-.175.333-.283l1.218-1.595c.172-.212-.099-.391-.26-.493a1.55 1.55 0 0 0-.642-.251l-.919-.178zm.028.1l1.16.23c.16.079.378.16.441.339-.147.225-.335.426-.491.647l-.875 1.139c-.194.076-.379-.142-.557-.21-.102-.059-.336-.178-.188-.307l1.033-1.331c-.008-.114-.167-.09-.253-.119-.152-.02-.34-.071-.366-.248-.056-.091-.01-.175.096-.14zm28.097 5.713l-1.059.075c-.156-.015-.185.131-.173.251l-.022.693c.079.101.226.038.337.042.104-.016.264.014.305-.108-.027-.124.064-.224.195-.208.113-.019.263.015.336-.093.043-.122-.046-.233-.181-.191-.109-.004-.253.058-.331-.042.003-.145.19-.119.295-.133.126-.021.276.012.378-.079.023-.078.041-.21-.08-.206zm-1.434.109l-1.049.074c-.155-.014-.184.131-.174.25l-.03.671c.047.125.209.058.313.063l.903-.072c.13-.009.155-.258.01-.26-.184-.007-.369.04-.552.022-.082-.112.145-.102.22-.11.101-.012.277.007.283-.13.03-.137-.149-.129-.242-.115-.088-.007-.218.054-.272-.031.046-.095.18-.056.269-.075.134-.022.291.012.401-.08.022-.078.046-.207-.079-.207zm-4.581-.641c-.398-.072-.81-.032-1.204.045-.347.086-.731.203-.947.509-.075.143-.164.389-.013.505.227.127.49.049.735.043.186-.021.475-.078.494-.307.054-.118.482-.125.284.054-.247.208-.57.274-.871.365-.159.037-.193.199-.192.337-.057.193.111.343.295.343.327.024.662-.057.983.032.124.151-.258.245-.387.269-.237.051-.528.008-.656-.223-.189-.148-.441-.068-.661-.064-.185.013-.411.024-.521.196-.082.229.026.476.236.594.355.261.828.273 1.254.275.671-.018 1.37-.126 1.947-.49.227-.15.462-.418.371-.704-.059-.278-.338-.431-.585-.517.208-.159.43-.437.323-.713-.116-.286-.43-.416-.704-.504l-.182-.043zm-.089.088c.255.057.584.143.659.431.038.247-.172.449-.353.585-.075.04-.297.169-.083.173.266.021.588.115.673.402.075.3-.193.535-.432.66-.621.311-1.339.385-2.024.329-.308-.031-.657-.129-.82-.417-.108-.174.115-.256.256-.245.179-.004.362-.051.538-.008.105.145.259.274.448.293.32.042.672-.015.932-.212.2-.13.099-.428-.126-.44-.319-.071-.647-.018-.97-.024-.227-.001-.17-.371.039-.355.313-.077.633-.183.875-.403.165-.149.082-.432-.154-.416-.201-.025-.444.018-.602.16-.013.164-.165.238-.321.23-.163 0-.343.065-.491-.025-.03-.187.129-.353.278-.445.466-.271 1.025-.329 1.554-.293l.125.02zm2.945.725c-.352-.048-.707.019-1.059.035-.104.01-.279-.003-.279.14l-.044.785c.046.124.207.058.311.062.389-.041.796-.015 1.161-.175.277-.105.398-.511.187-.73a.54.54 0 0 0-.276-.117zm-22.893-4.254c-.235-.052-.566.026-.618.297-.04.295.209.534.449.659l1.956 1.147c.253.116.623.156.813-.09.156-.242-.027-.542-.228-.693-.26-.201-.665-.317-.956-.113-.135.058-.109.307-.152.329l-.865-.505c.224-.035.376-.282.289-.494-.101-.291-.398-.482-.689-.537zm22.46 4.508c.246.054.17.44-.057.465-.144.061-.296-.02-.241-.178.02-.093-.032-.232.086-.272.067-.024.143-.028.213-.016zm-22.442-4.272c.193.035.425.204.376.424-.084.199-.359.162-.508.068-.175-.076-.309-.373-.083-.473.068-.03.144-.032.216-.019zm8.092 1.764c-.482-.085-1.031-.109-1.449.188-.168.135-.27.339-.322.543.038.203.277.245.45.275.251.035.533.151.761-.013.061-.154.331-.378.449-.179-.274.277-.66.4-1.01.551l-1.183.445c-.136.056-.188.204-.216.336.022.204.258.284.429.331l2.16.468c.189.029.458.014.519-.209.032-.11.109-.214.089-.332-.127-.169-.37-.178-.561-.227-.104-.03-.338-.049-.354-.085.474-.183.967-.39 1.316-.773.171-.178.213-.475.045-.67-.096-.156-.218-.3-.381-.391-.225-.142-.491-.197-.744-.258zm-.033.086c.354.076.753.178.962.503.151.238-.039.515-.234.658-.461.358-1.018.562-1.57.735-.087.127.25.108.337.153l.823.174c.201.086.016.439-.185.349l-2.118-.453c-.234 0-.412-.28-.114-.358l1.649-.64c.208-.111.45-.22.565-.438.084-.223-.192-.332-.367-.317-.242-.018-.393.186-.536.335-.188.016-.371-.052-.556-.077-.298-.005-.14-.307.002-.418.36-.318.906-.278 1.341-.205zm-6.134-.728c.199.038.438.21.391.437-.08.198-.358.17-.506.07-.156-.068-.314-.294-.169-.446.075-.071.188-.079.284-.061zm11.342 2.725c-.279-.047-.6-.127-.857.033-.157.129-.249.352-.218.553.085.234.365.287.578.349.182.034.367.101.553.086.146-.098.098-.311-.108-.27-.199-.014-.563-.088-.397-.363.074-.233.349-.137.52-.098.156.1.369.007.311-.181-.111-.071-.256-.075-.381-.109zm-3.469-.692c-.129-.044-.22.06-.286.153l-.512.632c.036.085.178.066.262.097.14.053.266.02.382-.051.116.023.237.036.346.082.003.148.156.154.271.178.092.007.203.074.282.016l.003-.871c-.041-.136-.212-.114-.324-.15l-.425-.087zm1.31.267c-.141-.056-.191.09-.222.195l-.233.626c-.004.133.178.109.271.143.297.052.59.153.894.142.214.039.443-.26.186-.375-.281-.131.223-.037.22-.228.071-.218-.209-.305-.37-.348l-.745-.155zm.383.335c.106-.01.336.12.123.158-.098.015-.318-.047-.178-.159-.008-.016.072.011.056.001zm-1.503-.239c.039.059.035.185-.003.248-.155.042-.202-.091-.081-.176.026-.024.042-.077.084-.072zm1.385.558c.11.003.399.107.169.169-.072-.028-.309.007-.261-.123.007-.045.052-.059.092-.046zm-15.084-1.475c-.166-.025-.271.128-.4.206l-1.04.781c-.1.118-.219.266-.154.43.077.21.305.286.472.41l.756.488-.283.394c-.08.171.072.327.214.401.16.094.318.26.521.198.169-.077.237-.274.36-.404l1.259-1.732c.068-.176-.138-.286-.258-.37-.158-.082-.298-.239-.49-.209-.194.101-.279.335-.424.494-.142.177-.274.406-.42.557l-.413-.259.838-.668c.169-.136.081-.378-.091-.463-.135-.086-.267-.186-.417-.246l-.028-.006zm.014.097c.149.089.336.161.434.308.002.106-.124.14-.187.208l-.82.65c-.039.093.109.119.164.171l.528.326c.157-.077.23-.303.358-.431l.483-.64c.14-.032.242.096.359.153.082.052.244.124.157.241l-1.414 1.914c-.131.065-.235-.072-.343-.126-.084-.061-.243-.118-.188-.249l.333-.461c-.021-.081-.127-.103-.187-.155l-1.023-.663c-.148-.112-.059-.301.08-.368l1.151-.863c.033-.023.078-.031.114-.015zm27.946 6.698c-.305-.037-.655-.026-.908.17-.198.179-.238.518-.089.738.187.213.508.186.763.164.263-.022.563-.161.612-.448.056-.222-.009-.514-.253-.59a.7.7 0 0 0-.126-.034zm-1.231.059c-.129 0-.264-.002-.39.031-.101.061-.055.194-.073.293-.017.134-.153.017-.19-.049-.081-.075-.134-.195-.245-.226-.142.009-.289.001-.427.037-.101.061-.055.194-.074.293l-.036.667c.032.134.197.07.298.076.108.007.259-.026.236-.165.017-.07-.024-.172.044-.216.093-.01.13.103.193.155.081.095.17.221.315.182.115-.015.24.008.347-.045.074-.08.036-.204.052-.305l.029-.647c.004-.045-.042-.076-.079-.081zm.983.222c.136.105.129.481-.081.51-.26.051-.22-.308-.151-.459.053-.067.156-.064.232-.052zm-5.178-.956c-.332-.063-.671-.005-1.006.002-.24-.012-.448.098-.628.245-.57.405-1.154.822-1.57 1.394-.142.188-.215.417-.221.651-.033.318.238.561.507.673.57.237 1.21.235 1.814.163.531-.077 1.086-.233 1.483-.614.182-.182.303-.477.156-.716-.122-.193-.321-.326-.509-.448-.268-.144-.573-.193-.872-.216l.999-.786c.149-.144.031-.333-.152-.349zm-.316.078c.275.059-.054.241-.152.321l-1.009.787c.023.113.198.031.284.046.421-.012.878.031 1.227.288.191.136.287.413.148.62-.216.364-.646.516-1.034.621-.6.134-1.242.154-1.836-.025-.247-.083-.522-.25-.543-.537.003-.368.275-.659.512-.911.436-.44.941-.806 1.454-1.15.238-.058.489-.037.732-.061.072 0 .145-.01.216.002zm2.937.75c-.209 0-.419.017-.627.035-.126.037-.142.191-.205.29-.021.121-.159.147-.173.01-.042-.085-.052-.195-.128-.257-.189-.024-.381.012-.572.016-.128-.02-.202.089-.186.206l-.051.768c.029.133.194.068.293.074.107.008.251-.026.231-.162.011-.103.005-.212.026-.312.078-.006.059.132.093.189.039.095.027.264.17.255.135-.011.276.001.406-.039.087-.099.108-.24.165-.359.01-.107.112-.126.077-.002-.001.104-.022.209-.009.313.084.086.216.029.323.036.124.019.221-.073.2-.196l.042-.785c.006-.044-.04-.072-.075-.079zm-23.304-4.677c-.271-.072-.495.179-.569.413-.077.262.157.477.358.6.188.12.461.256.667.099.094-.09.263-.277.103-.383l-.345-.212c-.093-.032-.249.15-.15.221.117.198-.352-.004-.173-.159.07-.203.296-.27.45-.112.117.068.223.156.349.206.152-.057.17-.274-.015-.318-.213-.136-.427-.295-.674-.354zm7.049 1.894c-.223-.049-.52-.049-.658.163l-.472 1.079c-.055.245.252.365.446.392.218.014.441-.04.652.043.177.064.425.146.44.367-.031.219-.341.248-.52.198-.284.022-.087-.361-.35-.427-.193-.098-.412-.124-.619-.181-.152-.034-.369.003-.409.179-.091.182-.117.407.003.584.261.418.764.585 1.222.681.567.109 1.224.096 1.686-.294.235-.197.396-.539.257-.837a1.77 1.77 0 0 0-.282-.451c-.262-.264-.623-.403-.98-.486.008-.1.073-.091.15-.061l.805.186c.155.022.34-.038.376-.207.045-.137.172-.295.053-.43-.189-.162-.453-.168-.684-.235l-1.115-.264zm-6.044-1.302c-.108-.001-.137.128-.2.197l-.363.523c-.046.125.119.165.194.228.088.087.222.078.268-.044.045-.116.173-.146.263-.056.137.066.037.191-.024.27-.101.105.047.191.131.239s.211.158.278.033l.459-.667c.042-.126-.12-.166-.197-.228-.084-.078-.218-.089-.264.033-.045.109-.165.167-.259.072-.141-.057-.061-.187.007-.266.102-.098-.026-.195-.116-.239-.058-.033-.111-.081-.178-.096zm6.01 1.389l1.526.367c.146.033.048.163.016.245-.02.122-.14.163-.248.114l-.946-.226c-.096.012-.091.138-.135.207-.025.074-.07.143-.081.219.144.096.349.074.511.147.363.119.76.338.858.736.07.332-.197.634-.477.771-.466.229-1.015.173-1.5.041-.332-.103-.712-.272-.827-.63-.03-.123-.028-.346.14-.356.178.011.349.073.523.109.264.025.036.338.264.412.263.124.606.183.861.009.156-.115.228-.323.133-.502-.134-.234-.416-.324-.662-.392-.198-.056-.405-.034-.606-.027-.164 0-.311-.154-.195-.298l.386-.861c.109-.125.31-.114.457-.087zm-4.828-.641c-.108-.002-.137.129-.2.197l-.365.532c-.046.126.12.167.196.23.084.08.221.094.267-.031l.433-.632c.042-.126-.12-.166-.198-.229-.043-.025-.083-.06-.133-.068zm17.438 4.178a1.49 1.49 0 0 0-1.01.155c-.199.094-.204.406-.001.501.286.167.661.186.972.066.207-.058.43-.272.342-.502-.05-.123-.182-.195-.303-.22zm-.065.29c.253.025.167.312-.034.344-.221.089-.486.092-.695-.028-.104-.204.193-.288.347-.312.126-.02.259-.037.383-.004zm-9.504-2.184c-.142-.06-.194.089-.226.194-.058.14-.098.289-.17.423-.107.107-.338-.083-.365.129-.098.162.157.186.265.216.248.059.592.008.678-.272l.197-.55c-.064-.101-.205-.087-.309-.124l-.07-.017zm.663.155c-.142-.06-.195.089-.226.194l-.25.668c-.01.138.175.12.27.157.1.024.259.085.292-.058.04-.061.028-.188.116-.192.068.05.066.156.103.231.016.109.097.185.208.192.136.024.27.086.409.076.042-.072-.039-.157-.055-.234-.032-.106-.107-.207-.098-.32.081-.11.219-.161.326-.244.056-.05.162-.074.175-.151-.106-.07-.244-.071-.365-.109-.1-.032-.215-.045-.295.038l-.254.175c-.115-.012 0-.139.007-.206.074-.137-.114-.162-.211-.183l-.152-.036zm1.527.358c-.141-.054-.198.087-.227.195l-.247.676c-.007.135.168.121.262.156l.706.163c.131.015.222-.236.068-.271-.126-.044-.276-.041-.383-.123.015-.143.091-.277.133-.416.023-.078.067-.152.074-.234-.066-.108-.214-.092-.322-.13l-.064-.015zm-16.749-1.694c-.133-.042-.224.068-.284.169-.069.121-.221.228-.168.384.076.215.305.298.472.428l.406.277c-.6.33-1.23.599-1.848.89-.094.069-.184.182-.184.304.037.247.296.352.47.493.16.12.384.244.576.12l2.232-1.118c.142-.111.389-.18.392-.391-.071-.271-.339-.42-.551-.575l-1.398-.942a.43.43 0 0 0-.116-.039zm.012.104c.216.097.4.257.602.381l1.186.838c.136.189-.197.261-.308.355l-2.221 1.103c-.206-.009-.352-.187-.519-.29-.153-.061-.177-.257-.002-.284l1.942-.962c.161-.065.014-.168-.071-.214l-.804-.55c-.122-.083-.025-.199.038-.28.035-.054.077-.122.155-.097zm28.911 7.364a6.66 6.66 0 0 0-.575.022c-.138-.007-.166.245-.308.155-.054-.103-.163-.157-.279-.134l-.465.025c-.122.051.045.151.082.215.079.096.171.184.241.286.022.12-.108.186-.17.272-.085.101-.189.189-.262.3.05.087.188.03.277.041.153-.019.326.025.456-.073.046-.082.164-.186.227-.062.078.145.259.091.393.094.123-.012.254.01.371-.037.027-.08-.085-.133-.123-.198-.081-.098-.176-.186-.247-.292-.021-.124.113-.192.177-.282.082-.098.182-.183.253-.29.007-.025-.03-.043-.048-.043zm-1.844.077c-.164-.003-.33.004-.493.021-.157.022-.164.198-.223.312-.042.096-.071.199-.122.29-.082.001-.049-.136-.077-.196-.027-.111-.029-.231-.074-.336-.119-.087-.278-.031-.416-.038-.118-.004-.275.019-.292.162l-.143.447c-.085.006-.063-.132-.098-.191-.037-.111-.052-.232-.104-.336-.126-.087-.288-.03-.432-.037-.091-.001-.276.002-.223.137l.229.884c.071.135.247.074.371.08.17-.015.347.009.51-.045.099-.069.087-.208.127-.313.029-.085.034-.184.079-.261.107-.023.063.134.089.201.02.109.018.224.054.329.114.089.269.033.402.041.164-.017.34.017.491-.059.085-.089.101-.223.154-.332l.265-.696c.004-.039-.042-.06-.074-.065zm-24.545-5.433c-.113-.014-.143.124-.207.192l-.386.555c-.046.127.116.177.194.244.082.052.203.176.284.059.034-.102.129-.114.2-.036.203.135.442.319.699.234.206-.09.302-.377.149-.556-.196-.248-.487-.391-.738-.575-.064-.04-.121-.094-.194-.116zm25.747 6.62c-.357-.002-.714.024-1.071.034-.144.014-.296-.011-.433.044-.078.061-.091.264.041.273.183.011.367-.018.55-.008.088.065-.095.119-.139.169-.174.127-.365.233-.524.377-.038.103-.076.312.099.302l1.389-.047c.144.006.168-.152.138-.257-.104-.093-.256-.037-.384-.046-.096-.006-.201.028-.29-.014.01-.076.122-.106.178-.158.171-.124.357-.23.516-.369.024-.095.08-.28-.07-.298zm-5.35-1.285c-.681-.162-1.407-.12-2.074.085-.385.139-.806.349-.957.757-.049.222-.08.481.082.668.301.377.81.494 1.27.524l-.939.731c-.109.164-.091.446.147.483.278.077.572.022.856.031.217.002.449-.022.62-.17.637-.446 1.283-.911 1.757-1.536.185-.257.357-.614.19-.922-.194-.348-.575-.564-.953-.651zm-.091.097c.28.067.6.194.717.481.123.282-.052.579-.215.804-.482.621-1.138 1.078-1.775 1.523-.193.072-.408.033-.61.049-.15-.022-.489.082-.499-.132l1.183-.933c.189-.07.146-.226-.033-.177-.464.02-.975-.027-1.345-.335-.197-.146-.276-.437-.134-.647.222-.368.656-.525 1.052-.629.542-.12 1.115-.142 1.656-.005zm-20.011-4.9c.161.036.293.332.041.291-.098-.033-.257-.13-.134-.231.024-.031.044-.088.093-.06zm23.738 6.154c-.172-.007-.347.003-.519.018-.185.027-.218.235-.33.35-.097.019-.105-.12-.155-.18-.039-.133-.189-.163-.312-.146-.137.012-.279-.007-.411.034-.102.065.038.149.073.215l.41.533c.018.097-.023.199 0 .294.097.093.245.036.366.045.107-.005.288.014.295-.132.012-.11-.012-.24.086-.317l.552-.64c.018-.037-.029-.068-.056-.074zm-22.555-5.621c-.258-.078-.51.114-.592.352-.111.269.097.534.307.682.155.072.225.209.244.367.08.096.216.114.331.141.12-.016-.044-.233.142-.188.352-.008.612-.469.404-.767-.182-.263-.464-.451-.76-.566l-.075-.021zm18.117 4.726c-.315-.085-.68-.044-.94.161-.17.127-.198.409-.016.538.26.179.603.144.895.082.174-.056.422-.11.476-.31.09-.264-.206-.427-.415-.471zm-.06.307c.188.016.41.253.117.321-.241.096-.524.137-.774.051-.081-.187.12-.364.296-.379.118-.035.242-.015.36.008zm-17.872-4.628c.269.049.213.345.038.475-.215.177-.455-.201-.219-.354.043-.058.098-.136.181-.121zm5.989 1.593c-.472-.119-.992-.193-1.458-.013-.22.084-.374.278-.448.498-.101.188-.088.43.049.597-.278.097-.574.28-.658.581-.147.242-.064.558.129.751.39.399.937.595 1.467.727.494.114 1.041.147 1.508-.082.231-.111.416-.37.329-.633a1.63 1.63 0 0 0-.341-.572c.317-.049.669-.186.812-.495.098-.305-.113-.604-.312-.817-.293-.285-.69-.436-1.077-.541zm-.037.093c.417.115.864.285 1.12.655.126.179.103.441-.092.562-.234.207-.565.214-.856.27.058.194.408.308.487.552a.42.42 0 0 1-.15.575c-.346.214-.788.209-1.179.144-.497-.096-1.002-.258-1.399-.582-.194-.154-.35-.44-.214-.678.163-.303.516-.43.835-.491-.036-.166-.36-.319-.263-.57.066-.35.435-.53.763-.54.319-.025.64.023.948.104zm-8.256-2.105c-.113-.015-.143.124-.207.192l-.39.561c-.047.127.115.18.192.247.082.054.203.179.285.061.055-.053.087-.206.183-.14s.042.2.056.301c-.021.172.163.24.274.329.08.09.249.116.209-.049.009-.081-.019-.175.018-.247.208.027.418-.157.38-.373-.07-.297-.361-.448-.59-.615-.137-.088-.262-.201-.41-.268zm7.987 2.417c-.25-.081-.611.048-.631.341-.012.24.216.399.4.503.249-.009.529-.024.733-.185.178-.173-.001-.411-.169-.51-.102-.067-.215-.118-.333-.149zm-7.693-1.878c.161.037.292.337.04.295-.098-.034-.256-.133-.134-.234.024-.03.044-.089.094-.062zm7.594 2.179c.18.043.376.122.451.304-.172.092-.416.169-.6.099-.24-.079-.108-.393.105-.397l.044-.006zm-6.478-1.681c-.212-.092-.475.123-.359.349.103.222.316.36.497.512.027.218-.295-.095-.369-.161-.104-.079-.269-.352-.382-.152-.125.17.135.302.23.415.236.189.501.398.817.411.237.009.316-.301.167-.455-.111-.202-.367-.291-.47-.482.173-.058.337.205.479.305.075.126.234.175.295.021.051-.209-.225-.331-.35-.464-.169-.124-.351-.245-.556-.3zm8.436 2.503c-.143-.069-.273.176-.158.258.095.044.308.049.239.205l-.206.543c-.015.139.164.131.258.168s.249.067.275-.071l.202-.534c.105-.172.331.094.436-.078.07-.102.032-.235-.107-.239l-.939-.252zm1.34.359c-.139-.055-.189.093-.221.196-.06.182-.154.356-.181.546.004.273.304.387.524.453.255.071.581.148.8-.048.127-.145.157-.345.232-.518.024-.081.069-.157.078-.241-.062-.114-.213-.101-.323-.144-.118-.06-.226.023-.243.142l-.197.508c-.109.116-.423-.002-.31-.181l.193-.52c.01-.138-.166-.13-.261-.167l-.093-.025zm1.466.392c-.159-.07-.142.115-.144.212l-.028.798c.019.152.204.14.316.184l.526.133c.12-.029.164-.164.243-.248l.464-.614c.07-.127-.145-.122-.224-.157-.109-.025-.256-.102-.325.032l-.415.54c-.084-.02-.023-.148-.037-.217l.011-.513c-.054-.099-.194-.086-.289-.125l-.097-.026zm-5.043-.688c-.253-.075-.6-.085-.756.17-.122.228.061.478.273.566.259.108.579.19.834.028.218-.11.253-.433.049-.574-.114-.095-.258-.149-.4-.189zm-.044.317c.167.018.517.241.255.377-.197.105-.435.039-.628-.044-.278-.089-.026-.427.187-.363.063 0 .125.018.186.031zm-12.299-.691c-.136-.037-.274.017-.407.045-.109.064-.165.189-.237.29-.069.111.062.255-.123.255-.086.075-.143.179-.207.273-.045.143-.022.3.002.446.071.235.298.374.523.436-.152.149-.06.406.078.54.191.16.374.374.64.391.137.064.244-.176.303-.138.138.252.448.454.739.347.108-.027.239-.037.284-.16.078-.141-.124-.344.117-.299.17-.031.199-.216.174-.359-.019-.208-.003-.434-.125-.611-.08-.163-.378-.192-.424-.273.198-.13.157-.399-.014-.531-.177-.136-.347-.343-.594-.313-.11.024-.161.136-.233.211-.136-.193-.225-.433-.454-.533l-.043-.016zm-.007.16c.172.066.229.259.332.396.065.079.093.21.206.232.097-.031.138-.143.209-.212.066-.127.224-.048.302.029.095.093.266.161.25.316-.057.104-.169.175-.215.284.022.135.188.131.289.18.136.038.312.105.297.277-.008.084.053.215-.048.254-.134-.005-.256-.091-.389-.102-.146.152.22.322.157.501-.073.05-.169.051-.253.078-.213.006-.285-.218-.387-.363-.049-.072-.098-.205-.208-.164-.089.088-.149.209-.248.284-.145.032-.242-.117-.349-.192-.098-.06-.198-.199-.086-.293.048-.069.123-.124.15-.204-.021-.135-.187-.131-.288-.18-.146-.057-.366-.08-.381-.276.009-.088-.033-.194.026-.265.122-.027.238.054.355.081.078.011.191.107.246.016-.008-.104-.098-.183-.143-.275-.053-.096-.13-.182-.163-.287.018-.109.155-.085.236-.116.033-.009.068-.008.101 0zm28.182 8.508c-.479-.015-.959.009-1.438.013.043-.14-.025-.344-.204-.217-.068.248-.055.514-.085.769l-.081 1.283 1.716-.017.112-1.771c-.008-.009.01-.064-.02-.06zm.595.314c-.229.021.122.158.168.237.133.18.039.434-.151.532-.109.033-.236.196-.031.134.212-.098.454-.306.377-.567-.049-.166-.212-.272-.363-.335zm-1.002-.221c.026.099-.067.074-.133.076l-.723.012c-.024-.098.069-.073.135-.076l.721-.013zm.843.287c-.245.029.199.177.171.309.063.226-.168.329-.304.444.157.089.379-.134.442-.286.078-.218-.127-.4-.308-.467zm-.592-.138c-.018.219-.001.445-.056.657-.393.038-.791.024-1.186.03-.271.079-.157-.232-.156-.386l.025-.278 1.373-.023zm.455.254c-.267.014.137.141.079.285.019.119-.372.295-.11.27.161-.053.322-.244.212-.412-.042-.065-.108-.116-.18-.143zm-4.48-1.078c-.219-.038-.447-.028-.667-.001-.184.032-.391.141-.415.345l-.073.265-.396.007c.019-.112.102-.234-.004-.328-.14-.09-.221-.26-.415-.262-.251-.012-.515-.031-.754.061-.148.049-.233.182-.257.328l-.064.229c-.213.014-.435-.021-.639.051-.135.039-.162.175-.166.296s-.066.272.068.344c.152.099.34.082.514.08-.032.052-.006.179-.091.162-.22.015-.47-.038-.656.11-.09.091-.058.227-.084.336-.05.148.065.281.211.308.112.039.248.015.355.026-.021.172-.048.392.154.476.257.136.56.089.836.058.209-.035.465-.141.495-.38.032-.054.01-.178.084-.178l.35-.004c.005.12-.077.274.032.382.17.2.459.201.702.186.26-.012.571-.055.726-.29.038-.096.051-.199.078-.299.268-.013.579.044.788-.165.059-.086.055-.201.05-.3-.114-.131-.222-.284-.413-.317-.056-.043-.264.055-.21-.062.002-.089.045-.127.133-.107.241-.003.54.012.686-.216.03-.12.06-.289-.074-.36-.122-.112-.259-.244-.458-.203-.11.031-.026-.091-.025-.148.055-.163-.147-.22-.206-.328-.053-.054-.126-.085-.197-.105zm-.092.105c.167.009.145.158.102.267-.019.097-.062.194-.064.292.082.065.2.023.3.032.124.007.264-.034.371.047-.004.085.026.22-.088.244-.206.034-.418.009-.626.028-.102.033-.08.162-.115.245-.025.116-.066.232-.08.347.083.07.206.025.308.036.127.011.277-.04.383.049.015.081.025.218-.083.243-.215.038-.438.009-.656.028-.092.031-.075.153-.11.229-.034.112-.042.261-.182.292-.189.067-.397.072-.595.053-.163-.01-.24-.176-.172-.312.006-.078.076-.168.025-.236-.152-.033-.312-.005-.468-.011-.149.009-.302-.012-.448.02-.069.061-.06.17-.093.253-.017.141-.101.268-.257.282-.175.034-.359.052-.535.019-.233-.039-.164-.294-.1-.443.063-.143-.138-.105-.222-.108-.133-.01-.282.037-.398-.048.007-.076-.018-.192.065-.231.165-.049.343-.021.514-.032.102.018.195-.039.198-.147l.117-.444c-.076-.073-.196-.026-.294-.037-.121-.01-.264.039-.364-.047-.018-.091-.009-.237.116-.248.199-.02.401-.005.601-.021.101-.03.082-.159.119-.239.037-.126.051-.285.198-.335.202-.059.42-.055.627-.031.169.006.148.158.104.266-.018.097-.064.192-.066.289.081.067.199.022.298.033l.618-.014c.098-.032.079-.16.115-.241.038-.117.039-.27.172-.322.183-.083.393-.06.588-.06.024.007.054 0 .076.013zm-19.885-5.777c-.153-.068-.162.262-.312.116-.101-.063-.213-.212-.339-.133-.053.084-.171.178-.102.285.068.115.235.148.276.277-.073.102-.151.247.002.331.117.08.216.195.356.231.13.016.143-.265.286-.121.104.065.2.199.336.164.066-.073.166-.168.139-.276-.067-.132-.225-.177-.309-.293.016-.114.176-.244.01-.344-.111-.082-.216-.181-.342-.237zm21.941 6.617c-.161-.008-.297.133-.404.24-.162.179-.09.473.112.588.061.091.364.104.169-.023-.191-.086-.292-.312-.187-.503.038-.13.355-.194.31-.302zm.133.067c-.166.009-.33.144-.399.293-.07.184.05.368.216.444.115.098.237-.024.069-.081-.227-.096-.207-.427.008-.523.03-.03.184-.084.107-.133zm.142.098c-.198-.011-.425.259-.279.44.03.118.384.187.207.029-.22-.107-.076-.358.092-.428.018-.018-.007-.04-.02-.042zm1.584.524c.247.131-.277.269-.183.039.047-.045.122-.057.183-.039zm-.481.007c.246.131-.277.268-.182.039.047-.045.122-.057.182-.039zm.466.23c.248.131-.277.269-.183.039.047-.044.122-.058.183-.039zm-.946-.223c.245.131-.277.268-.182.039.046-.044.122-.057.182-.039zm.463.229c.247.131-.277.268-.182.039.047-.044.122-.058.182-.039zm.469.243c.251.145-.323.252-.174.024a.21.21 0 0 1 .174-.024zm-.95-.236c.246.131-.277.268-.182.039a.19.19 0 0 1 .182-.039zm-16.209-4.81c-.633-.19-1.363-.08-1.894.319-.366.274-.559.709-.684 1.136-.114.465.107.952.455 1.256.597.538 1.468.777 2.253.589.664-.157 1.233-.721 1.315-1.411.057-.427-.131-.84-.368-1.184-.27-.343-.661-.581-1.077-.706zm16.669 5.053c.274.164-.376.229-.141.009.044-.021.095-.022.141-.009zm-16.708-4.954c.519.162 1.035.521 1.187 1.069.176.576-.134 1.202-.612 1.531-.608.426-1.443.371-2.076.027-.328-.181-.639-.446-.773-.805-.135-.351-.04-.739.144-1.053.268-.497.816-.784 1.365-.836.256-.033.518-.008.765.067zm16.226 4.96c.262.135-.317.262-.167.027.046-.039.114-.041.167-.027zm-3.966-1.098c-.276-.009-.553.007-.83.008-.133.002-.116.158-.153.248-.025.115-.075.229-.084.345.085.069.207.025.309.035l.603-.013c.098-.036.08-.162.116-.244l.088-.344c-.005-.027-.036-.02-.049-.035zm-20.644-6.187c-.103-.012-.129.116-.188.179l-.337.49c-.04.123.114.176.187.248.075.085.212.123.258-.007.084-.108.193.033.271.083.11.141.304-.091.175-.188-.073-.078-.237-.128-.199-.257.095-.089.193.051.274.1.074.055.197.183.267.058.099-.092-.012-.201-.099-.254l-.577-.438-.033-.013zm20.365 6.428c.069.046-.019.149-.02.219-.064.057-.169.021-.252.033-.096.026-.155-.037-.101-.127-.001-.101.085-.143.176-.126h.198zm-12.189-3.541c-.325-.115-.691.061-.865.346-.165.264-.308.567-.297.885a.47.47 0 0 0 .341.434c.258.095.571.115.797-.069.322-.236.493-.632.526-1.021-.008-.213-.121-.434-.331-.509a1.23 1.23 0 0 0-.171-.066zm-7.283-2.202c-.103-.014-.129.116-.188.179l-.351.529c.028.126.168.176.256.26.101.111.192-.005.24-.096.047-.038.076-.185.142-.135-.024.136-.075.267-.094.404.036.119.171.169.256.25.088.109.212.074.3-.011l.197-.135c.064.053-.058.131-.08.193-.07.079-.135.206-.007.271.093.063.17.156.279.19.096-.017.122-.136.183-.204l.328-.488c.035-.13-.123-.184-.201-.258-.12-.084-.226-.192-.358-.255-.128.013-.224.127-.345.159-.098-.049-.021-.171-.022-.256.038-.115.004-.236-.112-.292-.142-.1-.27-.225-.423-.307zm7.233 2.538c.21.027.333.222.319.422-.022.229-.103.455-.27.618-.155.179-.399.298-.637.227-.194-.009-.351-.148-.262-.348.078-.327.217-.673.504-.871.101-.059.233-.088.346-.048zm2.42.992c-.15-.067-.268.051-.293.189l-.175.473c.02.167.22.175.347.225l3.087.964c.153.048.232-.089.259-.212l.165-.472c-.019-.194-.385-.267-.433-.055l-.145.401-2.828-.883.171-.466c.001-.085-.084-.141-.156-.163z"/><path d="M592.33 53.194l2.805.343"/></g><path d="M589.879 58.627c.317-.118.653-.198.992-.224.512-.011 1.042.054 1.506.28.201.13.423.254.561.455.122.212.091.493-.027.699-.125.118-.293.348-.482.22-.177-.119-.416-.157-.57-.298.002-.203.227-.354.202-.554-.417-.268-.937-.328-1.422-.267-.26-.016-.252.296-.346.461-.095.224-.386.107-.573.164-.188.033-.483.097-.446-.202-.015-.239.192-.422.349-.575a1.09 1.09 0 0 1 .255-.16z" fill="#0f0"/><path d="M614.366 55.891l3.535.433" fill="#06f"/><path d="M612.269 62.085c.315-.12.651-.179.983-.228.605-.05 1.219.038 1.799.211.368.114.697.326 1.004.554a.81.81 0 0 1 .206.917c-.121.129-.28.352-.48.279l-.79-.335c-.154-.183.108-.415.115-.622-.087-.192-.38-.201-.558-.291-.463-.14-.962-.165-1.437-.083-.168.136-.1.4-.212.575-.15.15-.406.049-.598.101-.182-.018-.441.126-.564-.05-.111-.181-.12-.413.023-.581.121-.193.297-.356.509-.445z" fill="red"/><g stroke-linejoin="round" fill="none" stroke="red" stroke-width=".186"><path d="M614.394 63.419c-.126.411-.781.524-1.006.14-.149-.266.074-.578.339-.649.262-.093.627.025.68.327.01.06.005.123-.013.182z"/><path d="M613.808 63.555l.135-.437" stroke-linecap="round"/></g><path d="M597.67 43.653l22.433 1.522 7.308-23.858-20.133.898-9.608 21.438z" fill="#1a1a1a" stroke="#06f" paint-order="stroke fill markers" stroke-width="1.072"/><path d="M506.878-226.578l18.286-18.49.661 24.665-18.947-6.174z" transform="matrix(.974538 .270194 .270194 -.974538 174.526438 -335.549937)" fill="#333" paint-order="stroke markers fill" filter="url(#A)"/><g fill="#f60"><path d="M609.228 23.62c-.304.014-.635.097-.846.329-.108.167-.166.36-.266.532-.063.196-.228.38-.179.596.119.262.443.282.693.284l2.045-.004c-.236.61-.504 1.207-.802 1.789-.257.495-.523.995-.894 1.415-.272.293-.728.292-1.08.167-.035-.293.102-.574.232-.827.123-.234.293-.512.192-.783-.15-.245-.483-.206-.731-.207-.41.022-.822-.004-1.231.037-.28.054-.581.183-.707.457a11.23 11.23 0 0 0-.616 1.305c-.104.321-.164.687-.042 1.011.214.433.69.645 1.131.774.83.224 1.707.187 2.551.071 1.052-.163 2.121-.512 2.913-1.252.482-.453.807-1.042 1.108-1.624.406-.803.684-1.66.988-2.505.124-.358.291-.704.379-1.074.052-.211-.057-.445-.271-.509-.348-.122-.723-.049-1.083-.055l-3.485.073zm9.723-.145c-.758.033-1.521.159-2.231.435-.625.263-1.244.627-1.621 1.208-.159.232-.277.49-.371.754-.155.206-.121.532.138.634.403.172.848.071 1.271.074.422-.006.871-.022 1.233-.266.177-.098.293-.265.372-.446.165-.28.457-.52.792-.528.262.07.022.297-.085.4-.549.545-1.212.956-1.859 1.373l-2.826 1.64c-.303.19-.627.377-.843.668-.097.205-.208.417-.237.644-.006.282.278.454.519.521.552.135 1.126.072 1.688.095l4.117.026c.421-.026.885-.107 1.191-.422.217-.255.268-.598.39-.901.09-.182.113-.455-.115-.545-.433-.151-.903-.122-1.354-.117l-.845.014c.878-.51 1.728-1.077 2.492-1.748.46-.426.925-.887 1.152-1.484.158-.4.058-.899-.29-1.167-.276-.465-.822-.679-1.328-.783-.446-.084-.902-.076-1.353-.079zm-9.817.357l4.166-.081c.242.012.209.258.107.405-.525 1.366-.932 2.801-1.745 4.034-.313.482-.741.892-1.26 1.146-.837.42-1.781.59-2.711.614-.644.004-1.327-.056-1.884-.409-.232-.14-.402-.399-.372-.677.011-.5.28-.944.494-1.38.085-.25.352-.352.597-.342l1.065-.003c.299.086.029.362-.029.533-.132.29-.26.61-.184.934.032.255.302.365.527.391.506.1 1.093-.018 1.423-.442.453-.541.762-1.183 1.073-1.811l.838-1.955c-.079-.202-.358-.045-.523-.092l-2.124.004c-.32-.057-.073-.36-.013-.533.05-.212.261-.323.466-.331l.09-.005zm9.734-.135c.659.005 1.365-.021 1.953.326.286.163.554.44.547.79-.012.366-.214.698-.432.98-.697.818-1.592 1.433-2.488 2.012l-1.743.995c-.109.246.285.151.423.167l2.409-.018c.217-.018.426.174.293.386-.025.199-.092.423-.284.523-.411.166-.864.084-1.295.103l-4.338-.027c-.237-.021-.55-.021-.686-.25-.068-.221.163-.365.304-.488.496-.369 1.058-.636 1.589-.948l3.011-1.893c.349-.283.718-.57.953-.961.119-.191.152-.487-.05-.635-.283-.159-.634-.107-.931-.017-.426.15-.791.465-.988.872-.145.272-.496.261-.763.268l-.993.02c-.21 0-.282-.225-.153-.373a2.63 2.63 0 0 1 1.188-1.231c.665-.372 1.429-.515 2.179-.587l.297-.016zm-14.766 10.047c-.332-.004-.689.108-.91.366-.157.262-.267.549-.406.821l-2.866 6.135c-.107.289.14.581.417.642.337.079.687.059 1.029.095.347.023.706.067 1.039-.061.302-.103.587-.305.7-.615l.969-2.06c.073.333.113.677.232.997.171.309.555.34.87.359.399.018.81.098 1.197-.044.375-.111.638-.412.937-.646l.845-.708-1.014 2.449c-.104.217.023.465.215.583.325.217.738.157 1.106.201.429.012.869.11 1.29-.014.341-.092.685-.305.797-.66l2.657-6.455c.093-.253.191-.574.004-.809-.202-.225-.527-.254-.808-.291l-1.716-.031c-.28.019-.535.153-.737.342l-3.033 2.441-.718-2.606c-.074-.239-.308-.389-.552-.395l-1.543-.036zm-.104.233l1.584.04c.198.062.169.312.236.472l.721 2.686c.126.144.302.015.41-.083l3.42-2.754c.231-.155.518-.07.777-.082l1.285.038c.2.013.309.226.181.388l-2.08 5.128-.618 1.413c-.189.241-.522.245-.799.211l-1.213-.087c-.183-.033-.282-.232-.171-.39l1.42-3.395c.002-.22-.314-.136-.397-.007l-2.357 1.963c-.283.195-.636.086-.952.09-.213-.018-.502.018-.623-.204-.163-.652-.267-1.318-.362-1.983-.115-.179-.386-.041-.411.141l-1.504 3.197c-.153.235-.464.272-.72.241l-1.185-.086c-.217-.054-.21-.293-.093-.439l2.928-6.285c.125-.153.332-.213.524-.212zm12.117.206c-.352-.003-.725.111-.972.371-.127.187-.154.42-.267.615l-1.15 3.319-.693 1.634-.551 1.156c-.055.217-.199.415-.195.644.033.353.404.532.718.569l2.246.146 3.579.216c.445-.007.936-.159 1.193-.547.11-.224.16-.473.247-.707.085-.296.237-.636.066-.929-.196-.244-.538-.267-.828-.299l-2.374-.147-.57-.035c.098-.138.074-.464.268-.455l1.965.109c.438-.017.918-.156 1.19-.521.106-.252.172-.521.265-.779.149-.325-.003-.729-.308-.902-.34-.228-.764-.169-1.151-.203l-1.174-.069.321-.839 2.933.102c.422-.019.888-.153 1.141-.515.121-.239.173-.506.266-.757.068-.233.137-.512-.002-.731-.204-.218-.528-.243-.807-.281l-2.03-.073-3.327-.092zm-.094.258l5.164.16c.168.005.411.032.45.232-.064.257-.144.524-.254.766-.203.241-.545.205-.827.196l-2.959-.103c-.188.012-.239.215-.282.363l-.531 1.435c.113.216.435.093.638.146l1.92.114c.176.016.353.187.243.366-.087.223-.132.464-.245.675-.246.238-.617.178-.927.163l-2.015-.093c-.282.06-.262.426-.388.634l-.305.818c.096.183.364.088.538.132l3.057.212c.17.016.407.155.327.355l-.237.706c-.204.264-.567.242-.865.214l-4.525-.268-.874-.053c-.179-.022-.331-.216-.214-.384.832-1.611 1.432-3.328 2.037-5.034l.508-1.518c.12-.182.362-.234.567-.233zm-3.08 11.434l-2.444.401c-.031.103-.102.242.083.154.22-.082.293.106.186.27l-.485 1.59c-.077.225-.43.094-.479.298-.084.185.255.007.345.03l2.244-.352.214-.641c-.195.015-.377.035-.428.251-.148.273-.483.308-.759.342-.134.005-.375.098-.443.043l.276-.927 1.031-.165c.032-.109.113-.261-.068-.182l-.901.145.249-.837c.26-.032.518-.107.78-.107.202.029.095.268.151.353.166-.019.355-.02.338-.24l.109-.426zm-2.845.467l-2.401.394c-.031.1-.107.241.078.154.221-.082.284.11.177.269l-.509 1.58c-.089.234-.466.084-.49.337.018.105.293-.035.399-.019l2.157-.338.223-.637c-.193.014-.372.037-.424.249-.149.27-.481.306-.755.34-.123-.002-.382.108-.428.037l.289-.918 1.013-.163c.032-.107.118-.259-.063-.181l-.885.143.261-.832c.255-.031.509-.106.767-.105.199.033.084.268.14.351.165-.018.348-.022.336-.238l.116-.423zm-3.542.632c-.13.061-.352-.004-.516.037l-1.414.229c-.031.097-.112.239.072.153.236-.086.265.133.161.288l-.529 1.549c-.079.193-.36.126-.457.246-.078.138-.005.149.13.106l1.419-.223c.049-.114.089-.223-.07-.159-.15.051-.435.03-.291-.195.088-.195.11-.469.24-.614.149-.029.316-.089.331.121.12.221.139.553.408.649.266.076.545.006.813-.027.006-.068.116-.22-.019-.169-.172.019-.284-.127-.343-.268l-.277-.551c.334-.114.711-.307.803-.678.055-.208-.141-.333-.298-.416-.033-.027-.314-.145-.164-.081zm-.495.235c.226.025.251.262.203.443-.069.333-.421.482-.725.52-.112.016-.28.08-.175-.085l.288-.833c.132-.003.302-.085.412-.049l-.003.003zm-1.74.081l-2.343.385c-.032.095-.117.237.066.152.236-.085.255.135.152.287l-.55 1.54c-.079.191-.356.125-.453.245-.023.069-.083.169.035.12l1.398-.219c.046-.11.098-.227-.07-.158-.213.078-.282-.112-.17-.266.089-.186.113-.45.242-.588l.984-.158c.046-.116.104-.241-.063-.175l-.89.143.313-.898c.263-.028.527-.12.791-.097.214.061-.06.437.209.321.286.002.22-.401.336-.595l.012-.038zm-10.285 3.515c-.832-.076-1.678.342-2.167 1.01-.224.331-.354.714-.532 1.071l-1.043 2.265c-.051.255.289.197.448.238l3.041.407c.875.044 1.754-.413 2.241-1.139.216-.352.342-.748.515-1.121l.938-2.188c.048-.187-.175-.194-.304-.204l-3.136-.339zm20.011 2.166c-.186-.029-.332.133-.353.306l-1.079 3.292c-.149.579.097 1.216.569 1.574.382.308.873.433 1.353.476l3.93.529c.196.005.3-.184.323-.355l1.011-3.497c.131-.562-.141-1.163-.606-1.487-.385-.287-.867-.394-1.337-.425l-3.811-.412zm-12.834-1.22c-.93-.088-1.857.411-2.393 1.157-.27.386-.4.844-.594 1.27l-2.62 6.282c-.217.587-.158 1.314.295 1.776.292.309.713.44 1.125.486l8.501 1.447c1.235.143 2.486-.703 2.862-1.88l2.588-7.574c.169-.573.013-1.248-.455-1.638-.349-.309-.818-.423-1.272-.449l-8.038-.877zm-7.338-.589l3.104.342-1.251 2.889c-.385.724-1.263 1.145-2.069.991l-2.876-.385 1.354-2.938a1.87 1.87 0 0 1 1.737-.899zm20.285 2.237l3.988.445c.523.088 1.049.46 1.137 1.01.062.372-.118.72-.204 1.073l-.804 2.742-4.032-.544c-.541-.104-1.068-.511-1.145-1.082-.062-.39.131-.75.235-1.115l.826-2.53zm-13.183-1.068l8.41.947c.466.067.898.439.943.922.048.413-.167.788-.281 1.171l-2.407 6.944c-.314.798-1.232 1.324-2.078 1.131l-8.627-1.441c-.427-.096-.766-.487-.781-.928-.033-.461.225-.866.379-1.283l2.668-6.44c.317-.649 1.046-1.095 1.773-1.023zm1.49 2.712c-.612-.065-1.214.369-1.391.95l-1.101 2.787c-.118.369.055.827.433.962.275.091.57.099.853.154l2.801.422c.622.039 1.215-.419 1.372-1.016l1.037-2.858c.104-.37-.098-.806-.47-.93-.28-.088-.578-.091-.867-.136l-2.668-.335zm-.239.61l3.369.436c.192.041.256.278.159.434l-1.06 2.874c-.107.241-.4.309-.635.236l-3.252-.484c-.19-.048-.237-.288-.14-.44l1.101-2.802c.082-.166.271-.279.457-.255zm-12.249.637c-.184-.026-.302.149-.351.302l-1.455 3.169c-.201.509-.11 1.161.335 1.514.278.24.649.302 1 .353l3.152.535c.187-.004.273-.191.325-.343l1.381-3.234c.187-.517.072-1.159-.372-1.511-.287-.247-.666-.326-1.032-.365l-2.982-.421zm23.941 3.382c-1.052-.149-2.208.347-2.728 1.293-.189.399-.293.833-.441 1.248l-.889 2.715c-.014.198.216.245.368.254l4.287.729c1.003.105 2.089-.389 2.556-1.305.177-.402.262-.836.395-1.253l.827-2.855c.027-.169-.161-.255-.303-.252l-4.071-.575zm-23.915-2.976l3.185.464c.432.096.798.479.809.932.023.407-.204.76-.348 1.125l-1.077 2.496-3.345-.572c-.417-.103-.74-.506-.717-.94.009-.407.25-.752.399-1.117l1.095-2.388zm23.777 3.413l3.908.561-1.075 3.647c-.303.767-1.178 1.201-1.978 1.119l-1.482-.243-2.695-.456 1.149-3.504c.35-.817 1.319-1.25 2.173-1.124zm-28.47.376c-.077.082-.106.205-.162.304-.056.075-.05.127.047.149l9.081 4.546-2.149 5.2-9.476-4.641c-.041.145-.213.335-.176.452l9.453 4.671-2.069 5.006-9.569-5.162c-.046.153-.22.349-.188.477l9.546 5.194-2.07 5.009-9.615-5.684c-.042.169-.197.382-.161.527l9.553 5.695-2.684 6.494c.151.006.401.229.476.072l2.637-6.418 11.035 3.205-2.459 7.024c.156.015.4.209.496.102l2.447-7.039 15.16.778c.059-.197.215-.447.2-.615l-1.923-.099-13.233-.649 1.887-5.427 14.93.419.148-.547c-.298-.094-.631-.029-.943-.062l-13.944-.362 1.878-5.404 14.568.077.139-.512c-.295-.081-.619-.014-.925-.038l-13.602-.046 1.936-5.571 14.327-.744.137-.504c-.409-.001-.819.042-1.228.057l-13.364.715-10.794-2.01-9.347-4.639zm9.364 5.122l10.448 1.973-1.946 5.558-10.638-2.331 2.136-5.199zm-2.33 5.672l10.655 2.365-1.891 5.401-10.83-2.736 2.067-5.031zm-2.273 5.533l10.848 2.773-1.899 5.425-11.017-3.163 2.069-5.036z" paint-order="stroke markers fill"/><path d="M577.864 69.972l-5.256 9.103c2.884 4.577 7.018 8.351 11.831 10.82 4.545 2.344 9.63 3.549 14.725 3.772 5.107.226 10.232-.487 15.143-1.88 4.154-1.181 8.152-2.87 11.968-4.884 3.606-1.878 7.15-3.882 10.541-6.128.977-.652 1.938-1.329 2.863-2.055l-3.367.885 1.745-2.273c-.178-.161-.353.117-.517.174-3.698 2.317-7.445 4.582-11.411 6.417-2.221 1.017-4.542 1.799-6.886 2.478-4.359 1.243-8.878 1.985-13.417 1.997-4.6.006-9.235-.777-13.481-2.581-3.548-1.507-6.802-3.753-9.352-6.654-2.13-2.412-3.76-5.253-4.824-8.287a28.97 28.97 0 0 1-.304-.906z" paint-order="stroke fill markers"/></g></g></svg>